<?xml version="1.0" encoding="UTF-8"?><svg id="Layer_2" xmlns="http://www.w3.org/2000/svg" viewBox="0 0 464.48 414"><defs><style>.cls-1{fill:#8a90b9;}</style></defs><g id="Layer_1-2"><path class="cls-1" d="M326.44,5c13.83,0,26.72,7.44,33.64,19.42l94.2,163.15c6.92,11.98,6.92,26.87,0,38.85l-94.2,163.15c-6.92,11.98-19.81,19.42-33.64,19.42H138.04c-13.83,0-26.72-7.44-33.64-19.42L10.2,226.42c-6.92-11.98-6.92-26.87,0-38.85L104.4,24.42c6.92-11.98,19.81-19.42,33.64-19.42h188.39m0-5H138.04c-15.66,0-30.14,8.36-37.97,21.92L5.87,185.08c-7.83,13.57-7.83,30.28,0,43.85l94.2,163.15c7.83,13.57,22.31,21.92,37.97,21.92h188.39c15.66,0,30.14-8.36,37.97-21.92l94.2-163.15c7.83-13.57,7.83-30.28,0-43.85L364.41,21.92c-7.83-13.57-22.31-21.92-37.97-21.92h0Z"/></g></svg>