<?xml version="1.0" encoding="UTF-8"?><svg id="b" xmlns="http://www.w3.org/2000/svg" viewBox="0 0 512.14 482.85"><defs><style>.c{fill:#01c6e1;}.d{fill:#01a2c5;}.e{fill:#fc7612;}.f{fill:#fdc00f;}.g{fill:#b8b8c4;}.h{fill:#a6a6b2;}.i{fill:#d1d0df;}</style></defs><path class="g" d="m96.49,158.53l30.41-26.65,18.82,21.48-30.41,26.65-18.82-21.48Z"/><path d="m114.72,188.33l-26.5-30.33,39.26-34.45,26.6,30.33-39.35,34.45Zm-9.91-29.25l10.99,12.56,21.59-18.94-10.99-12.56-21.59,18.94Z"/><path class="g" d="m60.54,109.62l26.99-21.89c15.21-12.37,37.49-10.01,49.76,5.1l16.39,20.22-81.85,66.54-16.39-20.22c-12.37-15.21-10.01-37.49,5.1-49.76Z"/><path d="m71.83,185.49c-1.77,0-3.43-.79-4.61-2.16l-16.39-20.22c-14.33-17.67-11.68-43.67,5.99-58l26.99-21.89c17.67-14.33,43.67-11.68,58,5.99l16.39,20.22c2.06,2.55,1.67,6.28-.88,8.24l-81.85,66.54c-.98.79-2.26,1.28-3.63,1.28h0Zm37.98-99.81c-6.77,0-13.35,2.36-18.55,6.58l-26.99,21.89c-12.66,10.3-14.52,28.85-4.32,41.51l12.76,15.6,72.72-59.08-12.76-15.6c-5.59-6.97-14.03-10.89-22.87-10.89Z"/><path class="g" d="m373.46,153.45l18.82-21.48,30.41,26.65-18.82,21.48-30.41-26.65Z"/><path d="m404.43,188.33l-39.26-34.45,26.5-30.33,39.26,34.45-26.5,30.33Zm-22.67-35.53l21.59,18.94,10.99-12.56-21.59-18.94-10.99,12.56Z"/><path class="g" d="m447.32,179.6l-81.85-66.54,16.39-20.22c12.37-15.21,34.64-17.47,49.76-5.1l26.99,21.89c15.11,12.37,17.47,34.64,5.1,49.76l-16.39,20.22Z"/><path d="m447.32,185.49c-1.37,0-2.65-.49-3.73-1.28l-81.85-66.54c-2.55-2.06-2.94-5.79-.88-8.24l16.39-20.22c14.43-17.67,40.34-20.32,58-5.99l27.09,21.79c17.67,14.43,20.32,40.34,5.99,58l-16.39,20.22c-1.18,1.47-2.85,2.26-4.61,2.26h0Zm-73.61-73.31l72.72,59.08,12.76-15.6c10.3-12.66,8.34-31.21-4.32-41.51l-26.89-21.89c-12.66-10.21-31.21-8.34-41.51,4.32l-12.76,15.6Z"/><path class="g" d="m214.04,57.71h83.42v60.85h-83.42v-60.85Z"/><path class="h" d="m258.79,57.71h38.77v60.85h-38.77v-60.85Z"/><path d="m303.34,124.54h-95.2V51.82h95.2v72.72Zm-83.42-11.78h71.64v-49.17h-71.64v49.17Z"/><path class="i" d="m333.57,20.71v24.54c0,8.15-6.67,14.82-14.82,14.82h-126.01c-8.15,0-14.82-6.67-14.82-14.82v-24.54c0-8.15,6.67-14.82,14.82-14.82h126.01c8.24,0,14.82,6.58,14.82,14.82Z"/><path class="h" d="m333.57,20.71v24.54c0,8.15-6.67,14.82-14.82,14.82h-27.48V5.89h27.48c8.24,0,14.82,6.58,14.82,14.82Z"/><path d="m318.75,65.95h-126.01c-11.38,0-20.71-9.32-20.71-20.71v-24.54c0-11.38,9.32-20.71,20.71-20.71h126.01c11.38,0,20.71,9.23,20.71,20.71v24.54c0,11.38-9.23,20.61-20.71,20.71ZM192.74,11.78c-4.91,0-8.93,4.02-8.93,8.93v24.54c0,4.91,4.02,8.93,8.93,8.93h126.01c4.91,0,8.93-4.02,8.93-8.93v-24.54c0-4.91-4.02-8.93-8.93-8.93h-126.01Z"/><path class="f" d="m258.79,476.96c-100.01,0-181.46-81.46-181.46-181.46s81.36-181.46,181.46-181.46,181.46,81.36,181.46,181.46-81.46,181.46-181.46,181.46Zm0-327c-80.28,0-145.54,65.26-145.54,145.54s65.26,145.54,145.54,145.54,145.54-65.26,145.54-145.54-65.26-145.54-145.54-145.54h0Z"/><path d="m258.79,482.85c-103.34,0-187.35-84.01-187.35-187.35s84.01-187.35,187.35-187.35,187.35,84.01,187.35,187.35-84.01,187.35-187.35,187.35Zm0-362.92c-96.77,0-175.57,78.71-175.57,175.57s78.81,175.57,175.57,175.57,175.57-78.71,175.57-175.57-78.81-175.57-175.57-175.57Zm0,327c-83.52,0-151.43-67.91-151.43-151.43s67.91-151.43,151.43-151.43,151.43,67.91,151.43,151.43-67.91,151.43-151.43,151.43h0Zm0-291.09c-77.04,0-139.65,62.71-139.65,139.65s62.71,139.65,139.65,139.65,139.65-62.71,139.65-139.65-62.61-139.65-139.65-139.65h0Z"/><path class="c" d="m258.79,149.96c-80.28,0-145.54,65.26-145.54,145.54s65.26,145.54,145.54,145.54,145.54-65.26,145.54-145.54-65.26-145.54-145.54-145.54h0Z"/><path class="d" d="m367.43,198.73c.1,2.75.2,5.59.2,8.34-26.6-32.88-66.64-51.92-108.84-51.92-77.33,0-140.34,62.91-140.34,140.34,0,44.56,21.2,86.46,57.12,112.96-2.75.2-5.4.29-8.15.39,25.81,20.9,58.1,32.39,91.37,32.29,80.28,0,145.64-65.26,145.64-145.54,0-35.82-13.15-70.27-37-96.86h0Zm-237.21,96.77c0-70.86,57.71-128.56,128.56-128.56,43.67,0,84.4,22.18,108.05,58.98-8.54,92.35-80.57,166.74-172.83,180.58-39.45-23.06-63.69-65.26-63.79-111h0Z"/><path d="m258.79,446.93c-83.52,0-151.43-67.91-151.43-151.43s67.91-151.43,151.43-151.43,151.43,67.91,151.43,151.43-67.91,151.43-151.43,151.43h0Zm0-291.09c-77.04,0-139.65,62.71-139.65,139.65s62.71,139.65,139.65,139.65,139.65-62.71,139.65-139.65-62.61-139.65-139.65-139.65h0Z"/><circle class="e" cx="258.79" cy="307.18" r="20.51"/><path d="m258.79,333.58c-14.52,0-26.4-11.78-26.4-26.4s11.78-26.4,26.4-26.4,26.4,11.78,26.4,26.4-11.88,26.4-26.4,26.4Zm0-40.92c-8.05,0-14.62,6.58-14.62,14.62s6.58,14.62,14.62,14.62,14.62-6.58,14.62-14.62-6.58-14.62-14.62-14.62Z"/><path d="m249.27,149.96h11.78v22.28h-11.78v-22.28Z"/><path d="m249.27,418.77h11.78v22.28h-11.78v-22.28Z"/><path d="m113.25,293.64h22.28v11.78h-22.28v-11.78Z"/><path d="m382.05,293.64h22.28v11.78h-22.28v-11.78Z"/><path d="m127.46,362.58l19.67-10.45,5.52,10.4-19.67,10.45-5.52-10.4Z"/><path d="m364.82,236.54l19.67-10.45,5.52,10.4-19.67,10.45-5.52-10.4Z"/><path d="m175.58,415.07l11.99-18.78,9.93,6.34-11.99,18.78-9.93-6.34Z"/><path d="m320.11,188.41l11.99-18.78,9.93,6.34-11.99,18.78-9.93-6.34Z"/><path d="m364.82,362.6l5.52-10.4,19.67,10.45-5.52,10.4-19.67-10.45Z"/><path d="m127.38,236.5l5.52-10.4,19.67,10.45-5.52,10.4-19.67-10.45Z"/><path d="m320.19,402.53l9.93-6.34,11.99,18.78-9.93,6.34-11.99-18.78Z"/><path d="m175.53,175.97l9.93-6.34,11.99,18.78-9.93,6.34-11.99-18.78Z"/><path d="m452.32,430.74l-3.73-11.19c19.43-6.48,35.33-20.71,43.97-39.35,9.03-19.14,10.21-41.12,3.43-61.14l11.19-3.73c7.75,22.96,6.38,47.99-3.93,69.97-10.01,21.49-28.36,37.98-50.94,45.44h0Z"/><path d="m439.66,398.84l-3.73-11.19c23.16-7.65,35.33-33.76,27.28-58.1l11.19-3.73c10.11,30.52-5.5,63.3-34.74,73.02Z"/><path d="m59.86,430.74c-22.47-7.46-40.92-23.95-50.94-45.44-10.3-21.89-11.78-47.01-3.93-69.97l11.19,3.73c-6.77,20.12-5.59,42,3.43,61.14,8.64,18.65,24.54,32.78,43.97,39.35l-3.73,11.19Z"/><path d="m72.61,398.84c-14.33-4.71-26.01-15.21-32.29-28.85-6.48-13.84-7.46-29.64-2.55-44.16l11.19,3.73c-3.93,11.58-3.24,24.34,1.96,35.43,4.91,10.7,14.13,18.94,25.32,22.67l-3.63,11.19Z"/><path d="m258.79,292.56c-3.24,0-5.89-2.65-5.89-5.89v-71.54c0-3.24,2.65-5.89,5.89-5.89s5.89,2.65,5.89,5.89v71.54c0,3.34-2.65,5.89-5.89,5.89Z"/><path d="m297.55,363.32c-1.86,0-3.63-.88-4.71-2.36l-25.42-34.55c-1.96-2.65-1.37-6.28,1.28-8.24s6.28-1.37,8.24,1.28l25.42,34.55c1.96,2.65,1.37,6.28-1.28,8.24-1.08.59-2.36,1.08-3.53,1.08Z"/></svg>