<svg width="482" height="336" viewBox="0 0 482 336" fill="none" xmlns="http://www.w3.org/2000/svg">
<path d="M272.141 266.551H212.727L222.934 195.547H261.933L272.141 266.551Z" fill="#F9A01E"/>
<path d="M272.145 272.286H212.731C211.91 272.286 211.098 272.109 210.35 271.768C209.603 271.426 208.938 270.928 208.4 270.307C207.862 269.686 207.464 268.957 207.232 268.169C207.001 267.38 206.941 266.551 207.058 265.738L217.266 194.733C217.462 193.368 218.144 192.119 219.186 191.216C220.228 190.313 221.561 189.816 222.94 189.816H261.939C263.317 189.817 264.65 190.314 265.692 191.217C266.734 192.12 267.415 193.368 267.612 194.733L277.819 265.738C277.936 266.551 277.877 267.38 277.646 268.169C277.414 268.957 277.016 269.687 276.478 270.308C275.94 270.929 275.274 271.427 274.527 271.768C273.779 272.109 272.967 272.286 272.146 272.286H272.145ZM219.346 260.822H265.531L256.971 201.28H227.907L219.346 260.822Z" fill="black"/>
<path d="M297.702 283.401V288.514H180.379V283.401C180.379 274.095 187.299 266.551 195.835 266.551H282.246C290.785 266.551 297.702 274.095 297.702 283.401Z" fill="#FFBB26"/>
<path d="M297.704 294.248H180.38C178.86 294.248 177.402 293.644 176.327 292.569C175.252 291.494 174.648 290.036 174.648 288.516V283.403C174.648 270.951 184.154 260.82 195.837 260.82H282.247C293.93 260.82 303.436 270.947 303.436 283.403V288.516C303.436 290.036 302.832 291.494 301.757 292.569C300.682 293.644 299.224 294.248 297.704 294.248ZM186.127 282.784H291.957C291.676 276.94 287.427 272.284 282.247 272.284H195.837C190.656 272.284 186.409 276.94 186.127 282.784Z" fill="black"/>
<path d="M315.152 296.079V322.036C315.152 326.211 312.113 329.595 308.364 329.595H174.484C170.734 329.595 167.695 326.211 167.695 322.036V296.079C167.695 291.904 170.734 288.52 174.484 288.52H308.364C312.113 288.52 315.152 291.904 315.152 296.079Z" fill="#F9A01E"/>
<path d="M308.362 335.328H174.482C167.577 335.328 161.961 329.366 161.961 322.037V296.081C161.961 288.752 167.577 282.789 174.482 282.789H308.362C315.266 282.789 320.882 288.752 320.882 296.081V322.037C320.882 329.366 315.265 335.328 308.362 335.328ZM174.482 294.253C174.06 294.253 173.425 294.982 173.425 296.081V322.037C173.425 323.136 174.06 323.864 174.482 323.864H308.362C308.783 323.864 309.418 323.136 309.418 322.037V296.081C309.418 294.982 308.783 294.253 308.362 294.253H174.482Z" fill="black"/>
<path d="M374.479 116.153C364.428 131.067 352.185 138.2 342.27 141.582C340.338 142.247 338.372 142.807 336.379 143.259C332.745 144.118 329.026 144.571 325.292 144.612C324.555 144.612 324.101 144.586 323.965 144.578L325.214 124.971L325.112 124.963H325.292C331.263 124.822 337.102 123.179 342.27 120.187C348.696 116.518 354.156 111.369 358.195 105.169C370.866 86.3764 374.702 66.4872 375.841 55.134H324.59V35.4922H395.499L395.927 44.8679C395.995 46.383 397.331 82.2742 374.479 116.153Z" fill="#FFBB26"/>
<path d="M325.289 35.4922H342.267V55.133H325.289V35.4922Z" fill="#E8901C"/>
<path d="M342.267 120.184V143.257H325.289V124.961C331.26 124.82 337.099 123.177 342.267 120.184Z" fill="#E8901C"/>
<path d="M325.294 150.346C324.353 150.346 323.766 150.31 323.596 150.3C322.08 150.201 320.665 149.505 319.662 148.365C318.659 147.224 318.149 145.731 318.246 144.215L319.428 125.69C319.325 124.883 319.395 124.063 319.634 123.284C319.872 122.506 320.274 121.788 320.812 121.177C321.35 120.566 322.012 120.077 322.754 119.741C323.495 119.406 324.3 119.233 325.114 119.233H325.294H325.562C330.464 119.033 335.243 117.641 339.485 115.177C345.118 111.939 349.902 107.411 353.444 101.964C363.424 87.1566 367.583 71.51 369.308 60.8647H324.592C323.072 60.8647 321.614 60.2608 320.539 59.1858C319.464 58.1108 318.86 56.6529 318.86 55.1327V35.4938C318.86 33.9735 319.464 32.5156 320.539 31.4406C321.614 30.3656 323.072 29.7617 324.592 29.7617H395.5C396.976 29.7602 398.396 30.328 399.464 31.347C400.532 32.366 401.165 33.7576 401.232 35.232L401.66 44.6077C401.732 46.1955 403.156 83.9008 379.24 119.359C370.266 132.673 358.127 142.233 344.128 147.008C342.009 147.738 339.852 148.353 337.666 148.849C333.61 149.802 329.461 150.304 325.294 150.346ZM330.624 130.248L330.095 138.56C331.777 138.349 333.448 138.053 335.1 137.672C336.893 137.266 338.662 136.762 340.399 136.164C352.198 132.139 362.059 124.332 369.728 112.949C391.549 80.5982 390.268 46.5633 390.201 45.1303L390.023 41.2258H330.324V49.4025H375.843C376.644 49.4025 377.437 49.5704 378.169 49.8954C378.901 50.2204 379.557 50.6953 380.094 51.2894C380.632 51.8835 381.039 52.5836 381.289 53.3446C381.539 54.1057 381.627 54.9107 381.547 55.7078C380.442 66.7142 376.558 88.1893 362.95 108.375C358.405 115.32 352.273 121.086 345.06 125.195C340.579 127.704 335.694 129.414 330.626 130.248H330.624Z" fill="black"/>
<path d="M159.725 144.611C160.463 144.611 160.921 144.586 161.053 144.578L159.802 124.97L159.907 124.964C159.125 124.99 140.555 125.527 126.826 105.173C114.15 86.3773 110.321 66.4815 109.182 55.1397H160.428V35.4922H89.5185L89.0943 44.8717C89.0256 46.383 87.6843 82.2742 110.538 116.159C128.579 142.909 153.647 144.611 159.725 144.611Z" fill="#FFBB26"/>
<path d="M159.728 150.344C151.975 150.344 125.175 148.11 105.787 119.365C81.8916 83.9352 83.2978 46.2031 83.3695 44.6153L83.7937 35.2339C83.8605 33.7601 84.4931 32.3689 85.5596 31.3497C86.6262 30.3304 88.0447 29.7617 89.52 29.7617H160.429C161.949 29.7617 163.407 30.3656 164.482 31.4406C165.557 32.5156 166.161 33.9735 166.161 35.4938V55.1403C166.161 56.6605 165.557 58.1185 164.482 59.1935C163.407 60.2684 161.949 60.8723 160.429 60.8723H115.719C117.448 71.5205 121.604 87.1747 131.583 101.968C143.456 119.574 159.049 119.26 159.719 119.237C160.55 119.209 161.376 119.362 162.142 119.686C162.907 120.009 163.593 120.495 164.152 121.11C164.711 121.725 165.13 122.454 165.379 123.246C165.628 124.039 165.702 124.877 165.595 125.701L166.776 144.213C166.873 145.727 166.365 147.218 165.365 148.359C164.364 149.499 162.953 150.196 161.439 150.298C161.266 150.308 160.677 150.344 159.728 150.344ZM94.9988 41.2248L94.8221 45.1312C94.7581 46.5642 93.4903 80.6306 115.291 112.955C128.598 132.683 145.714 137.49 154.928 138.58L154.397 130.257C146.707 129.031 132.969 124.525 122.075 108.379C108.471 88.2103 104.586 66.7266 103.48 55.7135C103.4 54.9165 103.488 54.1116 103.738 53.3506C103.988 52.5896 104.395 51.8895 104.932 51.2955C105.47 50.7014 106.125 50.2265 106.858 49.9014C107.59 49.5764 108.382 49.4084 109.183 49.4083H154.697V41.2248H94.9988Z" fill="black"/>
<path d="M159.782 5.73438H324.589V115.367C324.589 126.189 322.457 136.904 318.316 146.902C314.175 156.899 308.105 165.983 300.453 173.635C292.801 181.287 283.717 187.357 273.719 191.498C263.722 195.639 253.006 197.771 242.185 197.771C220.33 197.771 199.37 189.089 183.917 173.635C168.463 158.182 159.781 137.222 159.781 115.367L159.782 5.73438Z" fill="#F9A01E"/>
<path d="M324.593 5.73438V118.477C324.594 128.89 322.543 139.201 318.559 148.822C314.574 158.442 308.733 167.184 301.37 174.547C294.007 181.91 285.265 187.751 275.645 191.736C266.024 195.72 255.713 197.771 245.3 197.77H239.076C226.836 197.789 214.759 194.96 203.801 189.507C262.389 169.585 304.367 115.799 304.367 52.5708C304.384 36.6156 301.672 20.7751 296.348 5.73438H324.593Z" fill="#E8901C"/>
<path d="M242.19 203.501C218.824 203.474 196.421 194.18 179.898 177.657C163.375 161.134 154.081 138.732 154.055 115.365V5.73203C154.055 4.2118 154.659 2.75384 155.734 1.67887C156.809 0.603909 158.266 0 159.787 0L324.594 0C326.114 0 327.572 0.603909 328.647 1.67887C329.722 2.75384 330.326 4.2118 330.326 5.73203V115.365C330.3 138.732 321.005 161.134 304.482 177.657C287.96 194.18 265.557 203.474 242.19 203.501ZM165.519 11.4641V115.365C165.519 135.699 173.597 155.201 187.975 169.58C202.354 183.959 221.856 192.036 242.19 192.036C262.525 192.036 282.027 183.959 296.405 169.58C310.784 155.201 318.862 135.699 318.862 115.365V11.4641H165.519Z" fill="black"/>
<path d="M290.204 73.5319L269.512 94.75L275.263 123.83C275.396 124.51 275.336 125.215 275.09 125.864C274.844 126.513 274.422 127.08 273.871 127.502C273.321 127.923 272.663 128.183 271.973 128.251C271.282 128.32 270.586 128.194 269.964 127.888L243.383 114.767L217.516 129.227C216.909 129.566 216.22 129.729 215.525 129.696C214.831 129.664 214.16 129.438 213.587 129.045C213.015 128.651 212.564 128.105 212.285 127.468C212.007 126.832 211.912 126.13 212.011 125.442L212.383 122.879C234.643 107.234 250.608 85.0973 256.425 59.6719L258.551 63.7187L287.983 67.2334C288.673 67.3168 289.325 67.5914 289.867 68.026C290.409 68.4607 290.818 69.0381 291.049 69.6931C291.28 70.3481 291.324 71.0547 291.174 71.733C291.025 72.4113 290.689 73.0344 290.204 73.5319Z" fill="#D1D3D4"/>
<path d="M256.415 59.6711C250.602 85.0965 234.633 107.234 212.374 122.878L216.27 96.1058L194.526 75.9634C194.017 75.4908 193.65 74.8854 193.468 74.2157C193.285 73.5459 193.293 72.8383 193.49 72.1728C193.688 71.5073 194.068 70.9102 194.587 70.449C195.106 69.9878 195.743 69.6808 196.428 69.5627L225.639 64.5519L238.08 37.6553C238.371 37.0241 238.833 36.4871 239.414 36.1049C239.994 35.7228 240.67 35.511 241.365 35.4934C242.059 35.4758 242.745 35.6531 243.344 36.0054C243.943 36.3576 244.432 36.8706 244.754 37.4862L256.415 59.6711Z" fill="#E6E7E8"/>
<path d="M215.687 135.443C214.331 135.439 212.992 135.144 211.76 134.579C210.529 134.013 209.432 133.19 208.546 132.165C207.659 131.139 207.003 129.936 206.621 128.635C206.239 127.335 206.141 125.967 206.333 124.626L210.167 98.2649L190.628 80.1718C189.336 78.9718 188.405 77.4345 187.94 75.7333C187.475 74.0321 187.495 72.2348 187.998 70.5445C188.501 68.8542 189.466 67.3381 190.785 66.1674C192.104 64.9967 193.724 64.2181 195.462 63.9196L221.7 59.4199L232.878 35.2498C233.618 33.6479 234.792 32.2851 236.266 31.3157C237.741 30.3463 239.457 29.809 241.221 29.7647C242.985 29.7204 244.726 30.1707 246.248 31.0648C247.769 31.9589 249.01 33.261 249.829 34.8238L262.214 58.3853L288.654 61.5427C290.406 61.7522 292.063 62.4473 293.44 63.5493C294.817 64.6513 295.859 66.1163 296.447 67.779C297.035 69.4417 297.147 71.2358 296.769 72.9585C296.392 74.6813 295.54 76.2642 294.31 77.5284L275.714 96.596L280.881 122.72C281.221 124.45 281.071 126.241 280.448 127.89C279.824 129.539 278.752 130.982 277.352 132.054C275.952 133.126 274.281 133.786 272.526 133.958C270.771 134.131 269.003 133.809 267.421 133.03L243.544 121.244L220.305 134.236C218.894 135.027 217.304 135.442 215.687 135.443ZM201.409 74.5315L220.165 91.9053C220.847 92.5369 221.365 93.3249 221.675 94.2013C221.984 95.0777 222.076 96.0163 221.942 96.9361L218.26 122.245L240.582 109.77C241.393 109.316 242.303 109.067 243.232 109.043C244.161 109.019 245.083 109.222 245.916 109.633L268.844 120.951L263.883 95.868C263.703 94.9563 263.747 94.0144 264.012 93.1236C264.276 92.2327 264.754 91.4195 265.402 90.7541L283.254 72.445L257.86 69.4128C256.937 69.3025 256.055 68.9695 255.289 68.4425C254.524 67.9154 253.898 67.21 253.465 66.3872L241.572 43.7562L230.841 66.9709C230.451 67.8142 229.862 68.5501 229.124 69.1151C228.387 69.6801 227.523 70.0573 226.607 70.2143L201.409 74.5315Z" fill="black"/>
<path d="M37.6891 233.041C37.6891 233.041 36.5713 217.718 29.0518 210.269C21.5839 202.87 6.28516 201.632 6.28516 201.632C6.28516 201.632 23.0036 199.561 30.4151 192.837C36.9496 186.914 37.6938 170.223 37.6938 170.223C37.6938 170.223 40.3248 186.892 46.1228 193.203C53.9365 201.706 69.1025 201.632 69.1025 201.632C69.1025 201.632 54.8049 204.421 47.9112 210.506C42.1734 215.569 37.6891 233.041 37.6891 233.041Z" fill="#FFBB26"/>
<path d="M37.6954 238.768C37.5253 238.768 37.3543 238.761 37.1814 238.745C35.8283 238.624 34.5621 238.027 33.6087 237.059C32.6552 236.091 32.0765 234.816 31.9757 233.461C31.6891 229.778 29.896 219.168 25.0209 214.336C20.1458 209.505 9.50331 207.649 5.81188 207.34C4.40196 207.218 3.08667 206.58 2.11919 205.547C1.15172 204.515 0.600449 203.161 0.571512 201.746C0.542575 200.331 1.03801 198.955 1.96245 197.884C2.8869 196.813 4.17499 196.121 5.57878 195.942C11.3557 195.216 22.1654 192.579 26.5618 188.591C29.8272 185.629 31.6872 175.914 31.9652 169.962C32.0293 168.543 32.618 167.198 33.6173 166.188C34.6166 165.179 35.9552 164.576 37.3736 164.497C38.792 164.418 40.1892 164.869 41.2941 165.762C42.399 166.655 43.1331 167.926 43.3538 169.329C44.2748 175.12 46.9841 185.673 50.3412 189.326C56.2585 195.768 68.8747 195.9 69.0658 195.9H69.0973C70.5184 195.905 71.887 196.437 72.9377 197.394C73.9883 198.351 74.6461 199.664 74.7835 201.078C74.9208 202.493 74.5279 203.908 73.6809 205.049C72.834 206.19 71.5934 206.976 70.1998 207.254C66.6421 207.954 56.3751 210.677 51.7044 214.801C48.6942 217.459 44.8776 228.105 43.2459 234.463C42.9294 235.694 42.2123 236.786 41.2075 237.565C40.2026 238.345 38.9671 238.768 37.6954 238.768ZM27.0233 201.74C29.2396 202.94 31.2805 204.438 33.0887 206.193C35.3337 208.489 37.1773 211.145 38.5427 214.051C39.9161 211.123 41.8038 208.465 44.1162 206.205C45.7033 204.835 47.4291 203.635 49.2655 202.623C46.5083 201.213 44.016 199.336 41.8989 197.076C40.4738 195.461 39.2662 193.666 38.3068 191.738C37.2701 193.734 35.9032 195.54 34.2638 197.079C32.0884 198.975 29.6495 200.545 27.0233 201.74Z" fill="black"/>
<path d="M444.476 154.153C444.476 154.153 443.357 138.831 435.839 131.381C428.37 123.983 413.066 122.744 413.066 122.744C413.066 122.744 429.785 120.673 437.196 113.955C443.732 108.032 444.476 91.3398 444.476 91.3398C444.476 91.3398 447.107 108.01 452.904 114.321C460.718 122.823 475.885 122.749 475.885 122.749C475.885 122.749 461.587 125.538 454.693 131.624C448.959 136.681 444.476 154.153 444.476 154.153Z" fill="#FFBB26"/>
<path d="M444.48 159.888C444.309 159.888 444.137 159.881 443.964 159.865C442.612 159.744 441.346 159.146 440.393 158.179C439.44 157.211 438.862 155.937 438.761 154.583C438.479 150.9 436.681 140.289 431.805 135.458C426.929 130.627 416.287 128.771 412.596 128.461C411.182 128.344 409.862 127.708 408.891 126.674C407.92 125.641 407.366 124.284 407.337 122.866C407.308 121.448 407.806 120.069 408.734 118.997C409.662 117.925 410.955 117.235 412.363 117.06C418.14 116.334 428.949 113.696 433.346 109.709C436.594 106.76 438.492 96.8518 438.75 91.0797C438.813 89.6602 439.401 88.3147 440.4 87.3041C441.399 86.2936 442.737 85.69 444.156 85.6105C445.574 85.5311 446.972 85.9813 448.077 86.8739C449.183 87.7666 449.917 89.038 450.139 90.4415C451.06 96.2318 453.769 106.785 457.126 110.438C462.078 115.829 472.336 117.011 475.871 117.011C477.297 117.007 478.675 117.534 479.733 118.491C480.792 119.448 481.455 120.765 481.594 122.185C481.733 123.605 481.337 125.026 480.484 126.17C479.631 127.314 478.382 128.098 476.982 128.37C473.425 129.07 463.157 131.793 458.486 135.918C455.488 138.565 451.666 149.216 450.029 155.581C449.713 156.813 448.996 157.904 447.991 158.684C446.987 159.464 445.752 159.887 444.48 159.888ZM433.807 122.86C436.024 124.059 438.065 125.557 439.873 127.312C442.118 129.608 443.962 132.264 445.328 135.17C446.7 132.243 448.588 129.585 450.9 127.325C452.487 125.955 454.212 124.754 456.048 123.743C453.292 122.332 450.8 120.456 448.683 118.196C447.257 116.581 446.05 114.786 445.091 112.857C444.054 114.853 442.687 116.659 441.047 118.199C438.871 120.094 436.433 121.664 433.807 122.86Z" fill="black"/>
</svg>
