<svg width="576" height="576" viewBox="0 0 576 576" fill="none" xmlns="http://www.w3.org/2000/svg">
<path d="M240.369 395.221L226.012 410.023C224.452 411.584 224.898 414.526 226.949 416.577L285.355 474.091C287.406 476.142 290.348 476.499 291.909 474.939L306.265 460.136C307.825 458.576 307.38 455.633 305.329 453.583L246.923 396.068C244.872 394.017 241.929 393.661 240.369 395.221Z" fill="#D1D0DF"/>
<path d="M298.238 446.672L309.162 457.595L291.06 475.697L280.137 464.773L298.238 446.672Z" fill="#B5B5C6"/>
<path d="M216.601 562.922L149.791 496.112C172.314 518.636 220.312 510.133 281.736 470.471L295.062 483.386L216.601 562.922Z" fill="#F9A01E"/>
<path d="M282.056 470.381C220.661 510.128 172.591 518.913 150.187 496.508L139.898 486.219L217.17 407.966L282.056 470.381Z" fill="#FFBB26"/>
<path d="M371.669 414.348L368.593 413.055L385.223 380.731L385.356 380.419C386.56 376.54 385.579 372.349 382.815 369.407C378.981 365.394 373.319 363.655 367.879 364.726L367.745 364.77C361.593 366.464 356.198 370.165 352.408 375.292C348.797 380.241 339.434 393.26 335.689 398.521C334.084 398.075 332.39 397.718 330.74 397.495L265.557 370.744L258.022 367.668L253.698 365.929L251.736 365.127L268.723 323.618C269.035 324.02 269.392 324.376 269.748 324.822C273.761 329.548 279.156 334.408 284.952 336.191C285.843 336.459 286.69 336.682 287.582 336.86C291.015 337.529 294.537 337.573 298.015 336.949C298.55 336.86 298.996 336.771 299.486 336.637C299.843 336.548 300.244 336.414 300.601 336.325C302.964 335.656 305.193 334.675 307.199 333.472C307.422 333.338 307.645 333.204 307.913 333.026C307.913 333.026 307.957 332.981 308.002 332.937C317.944 326.472 322.982 314.033 319.505 302.084C315.269 287.416 299.932 278.945 285.308 283.225C286.601 280.059 288.117 276.403 289.722 272.48L289.767 272.435C294.671 260.576 300.378 246.665 303.187 239.755L351.873 259.729C353.969 260.576 356.287 260.041 357.803 258.346C359.274 256.697 359.586 254.334 358.516 252.372C356.064 247.691 355.485 242.207 357.045 237.169C360.255 226.558 371.446 220.539 382.057 223.749C392.668 226.959 398.687 238.15 395.477 248.761C393.649 254.78 386.204 260.799 383.083 263.117C382.28 263.741 381.611 264.588 381.21 265.525C380.006 268.423 381.388 271.856 384.331 273.015L430.565 291.963L382.146 409.934C380.452 414.036 375.771 416.043 371.669 414.348Z" fill="#FFBB26"/>
<path d="M263.997 325.221L246.788 367.22L370.198 417.868C376.262 420.365 383.172 417.467 385.669 411.404L387.631 406.678C382.058 404.76 376.485 402.665 370.956 400.436C330.072 383.716 293.557 357.991 263.997 325.221Z" fill="#F9A01E"/>
<path d="M356.153 428.882L320.128 449.747V449.658L319.683 449.926C318.3 450.773 316.785 451.308 315.224 451.62C315.224 451.62 309.428 453.047 304.212 454.072L248.436 398.386C247.99 389.112 251.423 380.062 257.844 373.374L261.812 369.228L265.557 370.743L330.74 397.494C332.389 397.717 334.039 398.029 335.688 398.52C339.434 393.259 348.752 380.285 352.408 375.291C352.452 375.246 352.497 375.202 352.497 375.202C353.121 375.737 353.701 376.227 354.325 376.762C355.752 375.336 357.312 374.043 359.095 373.062C359.764 372.661 360.478 372.304 361.235 371.992C363.509 370.431 366.006 369.272 368.681 368.47C375.413 366.998 384.018 372.215 381.789 379.348L356.153 428.882Z" fill="#EFCDB1"/>
<path d="M304.346 212.646L318.702 197.844C320.263 196.283 319.817 193.34 317.766 191.29L259.36 133.775C257.309 131.724 254.367 131.368 252.806 132.928L238.45 147.73C236.889 149.291 237.335 152.233 239.386 154.284L297.792 211.799C299.843 213.849 302.741 214.251 304.346 212.646Z" fill="#D1D0DF"/>
<path d="M253.609 132.125L264.533 143.048L246.431 161.15L235.508 150.226L253.609 132.125Z" fill="#B5B5C6"/>
<path d="M359.699 13.543L426.058 79.9017C403.686 57.5301 334.931 87.0568 262.915 137.457L249.591 124.63L359.699 13.543Z" fill="#05BECC"/>
<path d="M263.096 137.232C334.96 87.0155 403.709 57.5525 426.113 79.9571L436.402 90.2462L328.113 199.515L263.096 137.232Z" fill="#01C6E1"/>
<path d="M287.804 332.089C280.982 330.172 274.384 322.86 271.174 318.758C270.505 317.911 269.301 317.777 268.454 318.446C268.142 318.669 267.964 318.936 267.83 319.248L251.512 361.961C249.862 366.285 245.002 368.47 240.633 366.865C228.194 362.094 205.59 353.489 195.959 349.833C195.201 349.521 194.8 348.674 195.112 347.916C195.246 347.515 195.603 347.158 196.004 347.025C208.443 342.789 215.131 329.235 210.895 316.796C206.66 304.357 193.106 297.669 180.667 301.905C174.692 303.956 169.788 308.236 166.979 313.898C163.814 320.274 164.928 330.038 165.865 335.165C166.043 336.235 165.374 337.261 164.304 337.439C163.947 337.528 163.591 337.439 163.234 337.35L112.943 318.178L124.133 288.886C175.094 296.689 233.277 277.651 277.326 233.601C279.288 231.639 281.205 229.633 283.078 227.582L293.734 231.639C297.389 233.066 299.217 237.123 297.835 240.824C293.199 253.04 284.148 276.625 280.358 286.568C280.046 287.326 280.447 288.173 281.205 288.485C281.607 288.619 282.052 288.619 282.454 288.396C293.912 281.931 308.491 285.988 314.911 297.491C321.331 308.994 317.319 323.528 305.816 329.949C300.332 332.936 293.912 333.738 287.804 332.089Z" fill="#C11F2F"/>
<path d="M288.787 225.622L237.024 205.871L234.616 199.272C231.941 200.253 229.221 201.1 226.591 201.858C226.19 201.992 225.788 202.037 225.387 202.17C223.202 202.75 221.062 203.017 219.101 203.017C213.438 203.062 209.158 201.368 209.114 201.323L206.349 200.164L205.19 201.769L204.611 202.616C204.477 202.839 190.879 221.788 186.331 228.029C183.611 231.73 179.777 234.405 175.319 235.653C172.51 236.144 169.612 235.297 167.605 233.29C166.669 232.443 166.312 231.106 166.624 229.902L185.083 194.056L186.866 190.667L188.649 187.279L191.547 181.617L226.546 161.331C227.572 160.751 229.177 160.127 230.336 159.859L230.47 159.815C230.514 159.77 233.992 158.968 238.005 158.076L292.665 211.845C292.353 216.794 291.06 221.475 288.787 225.622Z" fill="#EFCDB1"/>
<path d="M303.856 326.648C299.442 329.101 294.047 329.859 288.875 328.432C282.812 326.738 276.614 319.47 274.207 316.439C273.538 315.591 272.736 314.967 271.755 314.611C270.729 314.209 269.704 314.165 268.723 314.343C267.073 314.209 265.379 314.833 264.22 315.993C263.685 316.528 263.239 317.152 262.972 317.865L244.201 363.565C243.488 363.654 242.775 363.565 242.061 363.297C231.45 359.284 213.527 352.418 202.47 348.227C207.062 345.508 210.763 341.54 213.126 336.769C219.903 323.126 214.33 306.496 200.642 299.764C186.999 292.987 170.369 298.56 163.637 312.248C160.694 318.222 160.783 326.158 161.675 332.667L117.937 315.948L164.172 194.811C165.777 190.62 170.414 188.57 174.605 190.175L178.038 191.468L159.624 227.18L159.535 227.537C158.331 231.415 159.312 235.606 162.076 238.549L162.522 238.995C166.356 242.74 171.84 244.3 177.101 243.23L177.235 243.186C183.388 241.492 188.783 237.791 192.572 232.664C196.228 227.67 205.546 214.696 209.292 209.435C214.865 210.996 220.705 211.129 226.367 209.926L284.328 232.04L291.862 234.938L292.576 235.205C293.022 235.384 293.423 235.606 293.78 235.963C294.716 236.899 295.028 238.282 294.537 239.485C291.639 247.109 287.003 259.147 283.079 269.491L283.035 269.535C280.449 275.866 278.041 281.662 276.525 285.408C275.946 286.879 276.035 288.484 276.748 289.911C278.086 292.497 281.296 293.477 283.882 292.14C288.563 289.688 294.047 289.108 299.085 290.669C309.696 293.879 315.715 305.069 312.505 315.681C310.766 320.362 307.69 324.152 303.856 326.648Z" fill="#D22732"/>
<path d="M389.145 412.831L440.418 287.815L390.082 267.173C394.674 263.383 400.648 257.498 402.655 250.944C404.215 245.817 404.215 240.377 402.744 235.25C398.508 220.582 383.216 212.155 368.547 216.391C353.879 220.626 345.452 235.919 349.688 250.587L299.04 229.811L298.772 230.435C297.925 229.588 296.944 228.875 295.83 228.384C297.658 224.862 298.906 221.028 299.53 217.104C300.244 217.282 301.046 217.372 301.804 217.416C303.766 217.416 305.594 216.658 306.976 215.276L321.377 200.519L324.453 203.506C325.924 204.977 328.377 204.933 329.803 203.417L439.649 92.5902L434.209 87.3292L326.994 195.436L321.689 190.22C321.288 189.64 320.842 189.105 320.351 188.615L261.945 131.1C261.41 130.565 260.875 130.119 260.251 129.763L254.946 124.546L362.829 15.7707L357.39 10.5098L246.92 121.96C245.449 123.432 245.494 125.795 246.965 127.266L250.041 130.342L235.685 145.144C234.035 146.794 233.456 149.068 233.768 151.342C231.093 151.966 229.042 152.412 228.641 152.545C226.723 152.947 224.316 153.838 222.622 154.819L185.661 176.265L181.336 184.602L177.145 182.997C169.075 179.92 160.025 183.978 156.948 192.048L108.039 320.229L161.808 340.738C162.789 341.094 163.814 341.228 164.84 341.005C167.961 340.47 170.056 337.483 169.521 334.362C168.094 326.247 168.407 319.337 170.368 315.413C172.731 310.643 176.833 307.076 181.871 305.337C192.349 301.726 203.762 307.344 207.374 317.821C210.985 328.298 205.367 339.712 194.89 343.323C193.374 343.858 192.17 344.973 191.591 346.444C190.565 349.164 191.903 352.196 194.622 353.221C204.253 356.877 226.857 365.482 239.296 370.253C241.481 371.1 243.755 371.233 245.939 370.832L252.583 373.641C248.659 378.635 246.118 384.564 245.092 390.762C244.379 390.583 243.621 390.449 242.818 390.449C240.901 390.405 239.029 391.207 237.691 392.545L223.335 407.347L220.303 404.315C218.787 402.889 216.38 402.889 214.953 404.404L136.64 483.698L142.079 488.959L217.762 412.385L223.067 417.602C223.424 418.137 223.87 418.672 224.405 419.207L224.45 419.251L282.856 476.765C283.391 477.3 283.926 477.746 284.55 478.103L289.855 483.319L213.504 560.562L218.943 565.823L297.881 485.905C299.352 484.434 299.307 482.071 297.836 480.6L294.715 477.568L294.76 477.523L309.116 462.721C310.766 461.072 311.345 458.798 311.033 456.524C313.708 455.9 315.759 455.454 316.16 455.32C318.122 454.874 320.485 454.027 322.179 453.046L359.095 431.646L365.159 419.875L368.815 421.391C376.751 424.601 385.891 420.812 389.145 412.831ZM205.144 201.812L204.565 202.659C204.431 202.882 190.833 221.83 186.285 228.072C183.565 231.773 179.731 234.448 175.273 235.696C172.464 236.186 169.566 235.339 167.559 233.333C166.623 232.486 166.267 231.148 166.579 229.945L185.037 194.098L186.82 190.71L188.603 187.322L191.501 181.659L226.5 161.373C227.526 160.794 229.131 160.169 230.29 159.902L230.424 159.857C230.468 159.813 233.946 159.01 237.959 158.119L292.62 211.888C292.441 216.703 291.148 221.384 288.874 225.531L237.112 205.78L234.704 199.181C232.029 200.162 229.309 201.009 226.679 201.767C226.278 201.901 225.876 201.945 225.475 202.079C223.29 202.659 221.15 202.926 219.189 202.926C213.526 202.971 209.246 201.277 209.202 201.232L206.437 200.073L205.144 201.812ZM255.748 135.871L315.714 194.856C315.759 194.99 315.848 195.168 315.848 195.347L301.759 209.792C301.224 209.703 300.779 209.436 300.422 209.079L300.288 208.945L242.016 151.565C241.57 151.208 241.347 150.718 241.258 150.182L241.793 149.647L255.347 135.737C255.481 135.782 255.614 135.826 255.748 135.871ZM242.016 363.253C231.405 359.24 213.482 352.374 202.425 348.183C207.017 345.464 210.717 341.495 213.08 336.725C219.857 323.082 214.284 306.452 200.597 299.72C186.954 292.943 170.324 298.516 163.591 312.203C160.649 318.178 160.738 326.114 161.63 332.623L117.892 315.904L164.126 194.767C165.732 190.576 170.368 188.525 174.559 190.13L177.992 191.423L159.579 227.136L159.49 227.492C158.286 231.371 159.267 235.562 162.031 238.505L162.477 238.951C166.311 242.696 171.795 244.256 177.056 243.186L177.19 243.142C183.298 241.492 188.693 237.791 192.438 232.709C192.482 232.664 192.482 232.664 192.527 232.62C196.183 227.626 205.501 214.652 209.246 209.391C214.819 210.951 220.66 211.085 226.322 209.881L284.282 231.995L288.072 233.467L291.817 234.893L292.53 235.161C292.976 235.339 293.378 235.562 293.734 235.919C294.67 236.855 294.983 238.237 294.492 239.441C291.594 247.065 286.957 259.103 283.034 269.447L282.989 269.491C280.403 275.822 277.996 281.618 276.48 285.363C275.9 286.835 275.989 288.44 276.703 289.866C278.04 292.452 281.25 293.433 283.836 292.096C288.518 289.643 294.002 289.064 299.04 290.624C309.651 293.834 315.67 305.025 312.46 315.636C310.988 320.407 307.957 324.241 304.033 326.738C299.619 329.19 294.225 329.948 289.053 328.521C282.989 326.827 276.792 319.56 274.384 316.528C273.716 315.681 272.913 315.057 271.932 314.7C270.907 314.299 269.881 314.254 268.901 314.433C267.251 314.299 265.557 314.923 264.397 316.082C263.862 316.617 263.417 317.241 263.149 317.955L244.379 363.654C243.487 363.654 242.729 363.52 242.016 363.253ZM288.964 471.995L228.997 413.009C228.953 412.876 228.908 412.742 228.908 412.563L242.952 398.073C243.487 398.163 243.933 398.43 244.29 398.787L244.424 398.921L302.696 456.301C303.052 456.658 303.364 457.148 303.454 457.683L302.919 458.218L289.365 472.129C289.231 472.084 289.097 472.039 288.964 471.995ZM318.256 446.448C317.23 447.027 315.625 447.652 314.466 447.919L314.332 447.964C314.288 448.008 310.766 448.855 306.798 449.703L252.181 395.978C252.36 388.844 255.124 382.068 259.894 376.762L314.6 399.188C312.281 399.901 309.874 400.704 307.511 401.551L310.097 408.685C313.173 407.57 316.294 406.589 319.37 405.742C322.803 404.806 326.147 404.761 328.867 405.073C332.835 405.475 335.644 406.589 335.644 406.589L338.408 407.748L340.013 405.519L340.191 405.252C340.236 405.207 340.994 404.092 342.287 402.354C346.3 396.736 355.038 384.609 358.471 379.838C361.191 376.138 365.07 373.418 369.484 372.214C372.292 371.724 375.19 372.571 377.197 374.577C378.133 375.424 378.49 376.762 378.178 377.966L361.548 410.29L359.809 413.634L358.07 416.977L353.299 426.206L318.256 446.448ZM371.668 414.347L368.592 413.054L385.222 380.73L385.356 380.418C386.56 376.539 385.579 372.348 382.814 369.405C378.98 365.393 373.318 363.654 367.879 364.724L367.745 364.769C361.637 366.418 356.287 370.074 352.497 375.202L352.408 375.291C348.796 380.24 339.434 393.258 335.688 398.519C334.083 398.073 332.389 397.717 330.74 397.494L265.557 370.743L261.812 369.227L258.022 367.667L253.697 365.928L251.735 365.125L268.722 323.617C269.034 324.018 269.391 324.375 269.748 324.821C273.76 329.547 279.155 334.407 284.951 336.19C285.843 336.457 286.69 336.68 287.582 336.859C289.142 337.171 290.747 337.349 292.352 337.349C294.269 337.394 296.142 337.215 298.059 336.903C298.594 336.814 299.04 336.725 299.53 336.591C299.887 336.502 300.288 336.368 300.645 336.279C301.67 335.967 302.651 335.61 303.632 335.254C304.88 334.719 306.084 334.139 307.243 333.426C307.466 333.292 307.689 333.158 307.957 332.98C307.957 332.98 308.001 332.935 308.046 332.891C317.988 326.426 323.026 313.987 319.549 302.038C315.313 287.37 299.976 278.899 285.352 283.179C286.645 280.013 288.161 276.357 289.766 272.434L289.811 272.389C294.715 260.53 300.422 246.619 303.231 239.709L351.917 259.683C354.013 260.53 356.331 259.995 357.847 258.3C359.318 256.651 359.63 254.288 358.56 252.326C356.108 247.645 355.529 242.161 357.089 237.123C360.299 226.512 371.49 220.493 382.101 223.703C392.712 226.913 398.731 238.104 395.521 248.715C393.693 254.734 386.247 260.753 383.127 263.071C382.324 263.695 381.655 264.542 381.254 265.479C380.05 268.377 381.432 271.81 384.375 272.969L430.565 291.962L382.146 409.933C380.451 414.035 375.77 416.041 371.668 414.347Z" fill="black"/>
<path d="M118.672 338.465L125.879 340.771L120.075 358.908L112.869 356.602L118.672 338.465Z" fill="black"/>
<path d="M70.7539 309.527L88.8907 303.724L91.1966 310.931L73.0598 316.734L70.7539 309.527Z" fill="black"/>
<path d="M83.3164 340.812L97.1176 327.685L102.334 333.168L88.5328 346.296L83.3164 340.812Z" fill="black"/>
<path d="M433.957 249.766L441.164 252.072L435.36 270.208L428.154 267.902L433.957 249.766Z" fill="black"/>
<path d="M462.902 297.672L481.039 291.869L483.345 299.075L465.208 304.879L462.902 297.672Z" fill="black"/>
<path d="M451.867 275.43L465.668 262.302L470.885 267.786L457.084 280.914L451.867 275.43Z" fill="black"/>
</svg>
