<?xml version="1.0" encoding="UTF-8"?>
<svg xmlns="http://www.w3.org/2000/svg" xmlns:xlink="http://www.w3.org/1999/xlink" version="1.1" id="Capa_1" x="0px" y="0px" viewBox="0 0 512 512" style="enable-background:new 0 0 512 512;" xml:space="preserve" width="512" height="512">
<g>
	
		<ellipse transform="matrix(0.142 -0.9899 0.9899 0.142 -168.8751 341.8737)" style="fill:#827CD1;" cx="112.779" cy="268.356" rx="64.548" ry="64.549"/>
	
		<ellipse transform="matrix(0.9747 -0.2236 0.2236 0.9747 -49.8898 96.0431)" style="fill:#827CD1;" cx="399.222" cy="268.356" rx="64.548" ry="64.548"/>
	
		<ellipse transform="matrix(0.7071 -0.7071 0.7071 0.7071 -78.2821 244.5032)" style="fill:#827CD1;" cx="256" cy="216.747" rx="121.858" ry="121.858"/>
	<path style="fill:#625AC4;" d="M377.859,216.746c0-4.24-0.218-8.429-0.64-12.558c-109.673,59.813-194.775-16.882-183.905-91.954&#10;&#9;&#9;c-35.45,21.309-59.171,60.139-59.171,104.512c0,67.3,54.558,121.858,121.858,121.858S377.859,284.047,377.859,216.746z"/>
	<path style="fill:#F7E969;" d="M316.357,191.169h-34.78v-34.78c0-9.044-7.331-16.375-16.375-16.375h-18.405&#10;&#9;&#9;c-9.043,0-16.375,7.331-16.375,16.375v34.78h-34.78c-9.044,0-16.375,7.331-16.375,16.375v18.405&#10;&#9;&#9;c0,9.044,7.331,16.375,16.375,16.375h34.78v34.78c0,9.043,7.331,16.375,16.375,16.375h18.405c9.043,0,16.375-7.331,16.375-16.375&#10;&#9;&#9;v-34.78h34.78c9.043,0,16.375-7.331,16.375-16.375v-18.405C332.732,198.501,325.401,191.169,316.357,191.169z"/>
	<path style="fill:#F5C956;" d="M332.732,225.949v-4.274c-48.502,11.6-89.086-3.608-113.938-30.505h-23.15&#10;&#9;&#9;c-9.044,0-16.375,7.331-16.375,16.375v18.405c0,9.044,7.331,16.375,16.375,16.375h34.78v34.78c0,9.043,7.331,16.375,16.375,16.375&#10;&#9;&#9;h18.405c9.043,0,16.375-7.331,16.375-16.375v-34.78h34.78C325.401,242.324,332.732,234.992,332.732,225.949z"/>
	<path style="fill:#00D6D3;" d="M419.378,470.225c-15.842,0-17.14-3.805-85.087-8.547c-28.596-1.995-56.401-3.094-78.291-3.094&#10;&#9;&#9;c-21.891,0-49.695,1.099-78.292,3.094c-29.034,2.026-56.094,4.828-70.619,7.313c-46.39,7.929-90.422-23.238-98.356-69.624&#10;&#9;&#9;c-7.934-46.386,23.237-90.421,69.624-98.356c27.783-4.752,66.74-7.891,87.488-9.338c32.418-2.262,64.435-3.508,90.155-3.508&#10;&#9;&#9;c25.72,0,57.737,1.246,90.154,3.508c20.75,1.447,59.706,4.586,87.489,9.339c46.386,7.934,77.557,51.97,69.623,98.356&#10;&#9;&#9;C496.164,440.89,460.127,470.225,419.378,470.225z"/>
	<path style="fill:#00BED6;" d="M220.148,288.828c-17.228,0.585-35.696,1.547-54.303,2.845c-20.748,1.448-59.705,4.587-87.488,9.339&#10;&#9;&#9;c-46.386,7.934-77.557,51.97-69.624,98.356c7.934,46.386,51.966,77.553,98.356,69.624c14.525-2.484,41.585-5.287,70.619-7.313&#10;&#9;&#9;c28.597-1.996,56.402-3.094,78.292-3.094c6.241,0,12.975,0.092,20.058,0.266C216.515,430.125,205.541,338.174,220.148,288.828z"/>
	<path style="fill:#F7E969;" d="M119.789,79.794H93.94V53.945c0-6.721-5.449-12.17-12.17-12.17H68.091&#10;&#9;&#9;c-6.721,0-12.17,5.449-12.17,12.17v25.849H30.072c-6.721,0-12.17,5.449-12.17,12.17v13.679c0,6.721,5.449,12.17,12.17,12.17h25.849&#10;&#9;&#9;v25.849c0,6.721,5.449,12.17,12.17,12.17H81.77c6.721,0,12.17-5.449,12.17-12.17v-25.849h25.849c6.721,0,12.17-5.449,12.17-12.17&#10;&#9;&#9;V91.964C131.959,85.242,126.51,79.794,119.789,79.794z"/>
	<path style="fill:#F7E969;" d="M119.789,79.794H93.94V53.945c0-6.721-5.449-12.17-12.17-12.17H68.091&#10;&#9;&#9;c-6.721,0-12.17,5.449-12.17,12.17v25.849H30.072c-6.721,0-12.17,5.449-12.17,12.17v13.679c0,6.721,5.449,12.17,12.17,12.17h25.849&#10;&#9;&#9;v25.849c0,6.721,5.449,12.17,12.17,12.17H81.77c6.721,0,12.17-5.449,12.17-12.17v-25.849h25.849c6.721,0,12.17-5.449,12.17-12.17&#10;&#9;&#9;V91.964C131.959,85.242,126.51,79.794,119.789,79.794z"/>
	<path style="fill:#F5C956;" d="M69.792,41.775h-1.701c-6.721,0-12.17,5.449-12.17,12.17v25.849H30.072&#10;&#9;&#9;c-6.721,0-12.17,5.449-12.17,12.17v13.679c0,6.721,5.449,12.17,12.17,12.17h25.849v25.849c0,6.721,5.449,12.17,12.17,12.17H81.77&#10;&#9;&#9;c6.721,0,12.17-5.449,12.17-12.17v-24.377C74.632,103.629,66.27,67.46,69.792,41.775z"/>
	<path style="fill:#F7E969;" d="M481.929,79.794H456.08V53.945c0-6.721-5.449-12.17-12.17-12.17h-13.679&#10;&#9;&#9;c-6.721,0-12.17,5.449-12.17,12.17v25.849h-25.849c-6.721,0-12.17,5.449-12.17,12.17v13.679c0,6.721,5.449,12.17,12.17,12.17&#10;&#9;&#9;h25.849v25.849c0,6.721,5.449,12.17,12.17,12.17h13.679c6.721,0,12.17-5.449,12.17-12.17v-25.849h25.849&#10;&#9;&#9;c6.721,0,12.17-5.449,12.17-12.17V91.964C494.099,85.242,488.651,79.794,481.929,79.794z"/>
	<path style="fill:#F5C956;" d="M431.933,41.775h-1.702c-6.721,0-12.17,5.449-12.17,12.17v25.849h-25.849&#10;&#9;&#9;c-6.721,0-12.17,5.449-12.17,12.17v13.679c0,6.721,5.449,12.17,12.17,12.17h25.849v25.849c0,6.721,5.449,12.17,12.17,12.17h13.679&#10;&#9;&#9;c6.721,0,12.17-5.449,12.17-12.17v-24.377C436.773,103.629,428.411,67.46,431.933,41.775z"/>
	<g>
		<path style="fill:none;stroke:#000000;stroke-width:15;stroke-linecap:round;stroke-linejoin:round;stroke-miterlimit:10;" d="&#10;&#9;&#9;&#9;M323.075,460.939c-24.582-1.526-48.06-2.355-67.075-2.355c-21.891,0-49.695,1.099-78.292,3.094&#10;&#9;&#9;&#9;c-29.034,2.026-56.094,4.828-70.619,7.313c-46.39,7.929-90.422-23.238-98.356-69.624c-7.934-46.386,23.237-90.421,69.624-98.356&#10;&#9;&#9;&#9;c27.783-4.752,66.74-7.891,87.488-9.338c32.418-2.262,64.435-3.508,90.155-3.508c25.72,0,57.737,1.246,90.154,3.508&#10;&#9;&#9;&#9;c20.75,1.447,59.706,4.586,87.489,9.339c46.386,7.934,77.557,51.97,69.623,98.356c-7.102,41.522-43.139,70.857-83.888,70.857&#10;&#9;&#9;&#9;c-13.723,0-16.532-2.855-61.2-6.701"/>
		<path style="fill:none;stroke:#000000;stroke-width:15;stroke-linecap:round;stroke-linejoin:round;stroke-miterlimit:10;" d="&#10;&#9;&#9;&#9;M119.789,79.794H93.94V53.945c0-6.721-5.449-12.17-12.17-12.17H68.091c-6.721,0-12.17,5.449-12.17,12.17v25.849H30.072&#10;&#9;&#9;&#9;c-6.721,0-12.17,5.449-12.17,12.17v13.679c0,6.721,5.449,12.17,12.17,12.17h25.849v25.849c0,6.721,5.449,12.17,12.17,12.17H81.77&#10;&#9;&#9;&#9;c6.721,0,12.17-5.449,12.17-12.17v-25.849h25.849c6.721,0,12.17-5.449,12.17-12.17V91.964&#10;&#9;&#9;&#9;C131.959,85.242,126.51,79.794,119.789,79.794z"/>
		<path style="fill:none;stroke:#000000;stroke-width:15;stroke-linecap:round;stroke-linejoin:round;stroke-miterlimit:10;" d="&#10;&#9;&#9;&#9;M481.929,79.794H456.08V53.945c0-6.721-5.449-12.17-12.17-12.17h-13.679c-6.721,0-12.17,5.449-12.17,12.17v25.849h-25.849&#10;&#9;&#9;&#9;c-6.721,0-12.17,5.449-12.17,12.17v13.679c0,6.721,5.449,12.17,12.17,12.17h25.849v25.849c0,6.721,5.449,12.17,12.17,12.17h13.679&#10;&#9;&#9;&#9;c6.721,0,12.17-5.449,12.17-12.17v-25.849h25.849c6.721,0,12.17-5.449,12.17-12.17V91.964&#10;&#9;&#9;&#9;C494.099,85.242,488.651,79.794,481.929,79.794z"/>
		<path style="fill:none;stroke:#000000;stroke-width:15;stroke-linecap:round;stroke-linejoin:round;stroke-miterlimit:10;" d="&#10;&#9;&#9;&#9;M277.027,288.411c2.813-2.94,4.55-6.918,4.55-11.308v-34.78h34.78c9.044,0,16.375-7.331,16.375-16.375v-18.405&#10;&#9;&#9;&#9;c0-9.043-7.331-16.375-16.375-16.375h-34.78v-34.78c0-9.044-7.331-16.375-16.375-16.375h-18.405&#10;&#9;&#9;&#9;c-9.043,0-16.375,7.331-16.375,16.375v34.78h-34.78c-9.043,0-16.375,7.331-16.375,16.375v18.405&#10;&#9;&#9;&#9;c0,9.044,7.331,16.375,16.375,16.375h34.78v34.78c0,4.39,1.738,8.368,4.55,11.308"/>
		<path style="fill:none;stroke:#000000;stroke-width:15;stroke-linecap:round;stroke-linejoin:round;stroke-miterlimit:10;" d="&#10;&#9;&#9;&#9;M201.651,107.65c-40.021,19.976-67.509,61.326-67.509,109.097c0,28.437,9.742,54.598,26.069,75.331"/>
		<path style="fill:none;stroke:#000000;stroke-width:15;stroke-linecap:round;stroke-linejoin:round;stroke-miterlimit:10;" d="&#10;&#9;&#9;&#9;M351.79,292.077c16.327-20.733,26.069-46.894,26.069-75.331c0-67.3-54.558-121.858-121.858-121.858&#10;&#9;&#9;&#9;c-7.042,0-13.945,0.597-20.66,1.744"/>
		<path style="fill:none;stroke:#000000;stroke-width:15;stroke-linecap:round;stroke-linejoin:round;stroke-miterlimit:10;" d="&#10;&#9;&#9;&#9;M134.486,207.559c-6.785-2.423-14.089-3.752-21.707-3.752c-35.649,0-64.548,28.899-64.548,64.548&#10;&#9;&#9;&#9;c0,14.109,4.54,27.15,12.22,37.772"/>
		<path style="fill:none;stroke:#000000;stroke-width:15;stroke-linecap:round;stroke-linejoin:round;stroke-miterlimit:10;" d="&#10;&#9;&#9;&#9;M377.515,207.559c6.785-2.423,14.089-3.752,21.707-3.752c35.649,0,64.548,28.899,64.548,64.548c0,14.109-4.54,27.15-12.22,37.772"/>
		<g>
			<g>
				<path style="fill:none;stroke:#000000;stroke-width:15;stroke-linecap:round;stroke-linejoin:round;stroke-miterlimit:10;" d="&#10;&#9;&#9;&#9;&#9;&#9;M385.77,411.323l35.135-58.823c0.702-1.113,2.401-0.816,2.683,0.47l12.679,67.257"/>
				
					<line style="fill:none;stroke:#000000;stroke-width:15;stroke-linecap:round;stroke-linejoin:round;stroke-miterlimit:10;" x1="396.029" y1="396.938" x2="431.667" y2="403.222"/>
			</g>
			<g>
				
					<polyline style="fill:none;stroke:#000000;stroke-width:15;stroke-linecap:round;stroke-linejoin:round;stroke-miterlimit:10;" points="&#10;&#9;&#9;&#9;&#9;&#9;101.604,349.895 74.901,354.604 86.075,417.979 112.779,413.27 &#9;&#9;&#9;&#9;"/>
				
					<line style="fill:none;stroke:#000000;stroke-width:15;stroke-linecap:round;stroke-linejoin:round;stroke-miterlimit:10;" x1="105.223" y1="381.93" x2="80.488" y2="386.291"/>
			</g>
			<g>
				
					<line style="fill:none;stroke:#000000;stroke-width:15;stroke-linecap:round;stroke-linejoin:round;stroke-miterlimit:10;" x1="149.601" y1="344.109" x2="200.775" y2="404.825"/>
				
					<line style="fill:none;stroke:#000000;stroke-width:15;stroke-linecap:round;stroke-linejoin:round;stroke-miterlimit:10;" x1="191.911" y1="340.407" x2="151.993" y2="409.093"/>
			</g>
			<g>
				
					<line style="fill:none;stroke:#000000;stroke-width:15;stroke-linecap:round;stroke-linejoin:round;stroke-miterlimit:10;" x1="234.872" y1="338.541" x2="270.738" y2="338.541"/>
				
					<line style="fill:none;stroke:#000000;stroke-width:15;stroke-linecap:round;stroke-linejoin:round;stroke-miterlimit:10;" x1="252.733" y1="340.615" x2="252.733" y2="403.487"/>
			</g>
			<g>
				
					<line style="fill:none;stroke:#000000;stroke-width:15;stroke-linecap:round;stroke-linejoin:round;stroke-miterlimit:10;" x1="320.494" y1="374.803" x2="344.97" y2="408.06"/>
				
					<line style="fill:none;stroke:#000000;stroke-width:15;stroke-linecap:round;stroke-linejoin:round;stroke-miterlimit:10;" x1="315.651" y1="340.301" x2="309.99" y2="405"/>
				<path style="fill:none;stroke:#000000;stroke-width:15;stroke-linecap:round;stroke-linejoin:round;stroke-miterlimit:10;" d="&#10;&#9;&#9;&#9;&#9;&#9;M315.672,340.303c0,0,11.553,1.011,17.193,1.504c9.623,0.842,17.107,9.082,16.295,18.369&#10;&#9;&#9;&#9;&#9;&#9;c-0.812,9.286-9.614,16.102-19.237,15.26c-4.773-0.417-17.079-1.419-17.079-1.419"/>
			</g>
		</g>
	</g>
</g>















</svg>
