<?xml version="1.0" encoding="UTF-8"?>
<svg id="Layer_2" data-name="Layer 2" xmlns="http://www.w3.org/2000/svg" viewBox="0 0 26.28 41.56">
  <defs>
    <style>
      .cls-1 {
        fill: #f37022;
      }
    </style>
  </defs>
  <g id="Layer_2-2" data-name="Layer 2">
    <g>
      <path class="cls-1" d="m25.31,9.49c-.38-.97-.87-1.83-1.44-2.62l.18-.03c.41-.07.72-.2.95-.4.22-.19.38-.45.47-.78.09-.32.12-.71.1-1.15-.02-.45-.08-.95-.18-1.53-.1-.55-.23-1.12-.39-1.7-.16-.59-.28-1.02-.36-1.28l-10.89,1.92c-.19,0-.38-.02-.58-.02-1.97,0-3.75.3-5.35.9-1.6.6-2.97,1.46-4.12,2.57-1.15,1.12-2.04,2.48-2.67,4.08C.38,11.04.06,12.82.06,14.79s.32,3.8.95,5.4,1.52,2.96,2.67,4.08,2.53,1.97,4.12,2.57c1.6.6,3.38.9,5.35.9s3.75-.28,5.35-.85,2.98-1.4,4.12-2.5c1.15-1.1,2.04-2.46,2.67-4.08s.95-3.46.95-5.52c0-1.93-.32-3.7-.95-5.3h.02Zm-8.88,9.95c-.75,1.1-1.82,1.65-3.22,1.65s-2.49-.54-3.28-1.62c-.78-1.08-1.17-2.64-1.17-4.67s.38-3.54,1.15-4.62c.77-1.08,1.85-1.62,3.25-1.62s2.48.54,3.25,1.62,1.15,2.62,1.15,4.62-.38,3.55-1.12,4.65h0Z"/>
      <path class="cls-1" d="m25.64,34.08c-.46-1.3-1.82-3.37-1.82-3.37h-.03c-1.04.64-2.17,1.18-3.36,1.6-2.21.78-4.66,1.18-7.27,1.18s-5.13-.43-7.37-1.27c-1.1-.41-2.13-.92-3.09-1.51h-.2s-1.36,2.07-1.82,3.37c-.46,1.3-.52,1.5-.59,1.89s-.16.95,0,1.59c.17.64.5.99.8,1.31.3.32.74.6,1.76,1.05,1.02.45,1.85.87,4.15,1.25,2.27.37,5.77.39,5.83.39h0c.06,0,3.56-.02,5.83-.39,2.3-.38,4.13-.8,5.15-1.25s1.46-.73,1.76-1.05.63-.67.8-1.31c.17-.64.09-1.2.01-1.59s-.13-.59-.59-1.89h.04Z"/>
    </g>
  </g>
</svg>