<?xml version="1.0" encoding="UTF-8"?><svg id="b" xmlns="http://www.w3.org/2000/svg" viewBox="0 0 142.99 98.03"><defs><style>.aa{fill:#e9edf1;}.ab{fill:#f3d69e;}.ac{fill:#eb5793;}.ad{fill:#ef75a7;}.ae{fill:#efcb83;}.af{fill:#e7387f;}.ag{fill:#fcefde;}.ah{fill:#fce4c6;}.ai{fill:#9cd169;}.aj{fill:#8cc951;}.ak{fill:#dce6eb;}.al{fill:#c8d2dc;}.am{fill:#a2e1f8;}.an{fill:none;stroke:#000;stroke-linecap:round;stroke-linejoin:round;stroke-width:2.55px;}</style></defs><path class="ag" d="m44.16,27.01l12.3-22.13,64.93,36.04-12.39,22.4L44.16,27.01Z"/><path class="ah" d="m56.46,4.88l-2.14,3.84,53.11,29.48c3.96,2.2,5.4,7.19,3.2,11.16l-6.28,11.36,4.65,2.6,12.39-22.4L56.46,4.88Z"/><path class="am" d="m56.46,4.88l-12.3,22.13-3.42-6.33,8.54-15.36,7.18-.44Z"/><path class="ah" d="m25.78,3.72l17.15,13.01,4.14-7.46L26.97,1.57l-1.2,2.15Z"/><path class="ad" d="m99.81,70.68l-12.52,23.09c-.55,1.01.33,2.21,1.46,1.98l6.76-1.35c1.03-.2,1.91-.85,2.4-1.77l5.98-11.15c.68-1.25,2.03-1.97,3.44-1.82,1.41.14,2.77-.58,3.44-1.82l6.91-12.72h-.03s9.92-17.86,9.92-17.86c.68-1.23.24-2.77-.99-3.45l-5.46-3.03-6.64,11.95c-1.1,1.99-3.61,2.7-5.59,1.6l-49.11-27.26c-2.31-1.28-3.14-4.19-1.85-6.49.18-.32.06-.72-.26-.9l-6.52-3.62c-.32-.18-.72-.06-.9.26l-6.96,12.52c-.92,1.65-.32,3.74,1.33,4.66l56.96,31.74-1.77,5.46Z"/><path class="ac" d="m126.6,43.81l-5.46-3.03-2.14,3.84.81.45c1.23.68,1.67,2.23.99,3.45l-9.92,17.85h.03s-6.91,12.73-6.91,12.73c-.68,1.25-2.03,1.97-3.44,1.82-1.41-.14-2.77.58-3.44,1.82l-5.98,11.15c-.5.92-1.38,1.57-2.4,1.77l-.47.09c.16.03.32.03.5,0l6.76-1.35c1.03-.2,1.91-.85,2.4-1.77l5.98-11.15c.68-1.25,2.03-1.97,3.44-1.82,1.41.14,2.77-.58,3.44-1.82l6.91-12.72h-.03s9.92-17.86,9.92-17.86c.68-1.23.24-2.77-.99-3.45h0Z"/><path class="af" d="m67.12,68.44l5.69,3.89c.86.59,1.94.76,2.95.48l10.22-2.83c1.36-.39,2.83.08,3.71,1.18s2.35,1.57,3.71,1.18l12.42-3.55c1.87-.53,2.95-2.48,2.41-4.34l-1.67-5.86c-.53-1.87-2.48-2.94-4.34-2.41l-34.7,9.83c-1.11.32-1.35,1.78-.39,2.43h0Z"/><path class="am" d="m98.19,28.62l-.05.09c-2.23,3.96-7.23,5.38-11.21,3.17l-14.01-7.77c-4.01-2.22-5.44-7.29-3.2-11.28l.34-.49,28.47,15.78-.34.49Z"/><path d="m106.42,30.82L57.22,3.51c-.26-.14-.56-.21-.86-.19l-7.18.44c-.53.03-1.02.34-1.28.8l-1.54,2.76L27.54.1c-.73-.28-1.55.02-1.93.7l-1.2,2.15c-.38.68-.2,1.54.42,2.01l16.07,12.18-1.54,2.76c-.26.47-.26,1.04,0,1.51l3.09,5.71-.52.94c-1.32,2.38-.44,5.47,1.94,6.79l8.53,4.74,34.64,19.24-19.95,5.65c-2.34.67-2.86,3.87-.85,5.24l5.69,3.89c1.25.86,2.81,1.11,4.25.69l10.23-2.83c.76-.22,1.56.04,2.05.65,1.18,1.48,3.06,2.17,4.89,1.82.16-.03,3.42-.95,3.42-.95l-10.86,20.02c-1.16,2.15.77,4.73,3.15,4.27l6.76-1.35c1.49-.3,2.75-1.23,3.48-2.57l5.97-11.14c.37-.69,1.12-1.09,1.91-1.01,2.05.21,4-.83,4.98-2.64l6.91-12.72c.05-.09.09-.18.12-.27l4.09-7.35,8.86,4.92c3.14,1.74,7.24.57,8.98-2.57l1.67-3.01c.42-.76.15-1.71-.61-2.13h0c-.76-.42-1.71-.15-2.13.61l-1.67,3.01c-.93,1.67-3.04,2.27-4.71,1.35l-8.86-4.92,5.39-9.69c.42-.75.14-1.72-.61-2.13l-7.68-4.26s0,0,0,0l-15.47-8.59Zm-1.52,2.74l14.1,7.83-5.88,10.58c-.68,1.23-2.23,1.67-3.46.99l-49.11-27.26c-1.53-.85-2.09-2.83-1.24-4.36.59-1.06.19-2.45-.87-3.04l-5.84-3.24,4.47-8.05,10.82,6c-.89,2.07-1.05,4.36-.42,6.55.72,2.54,2.39,4.64,4.69,5.92l14.01,7.77c2.07,1.15,4.38,1.46,6.55,1.06,2.48-.46,4.76-1.86,6.28-4.03,0,0,5.91,3.28,5.91,3.28Zm-50.99,3.3l-8.53-4.74c-.88-.49-1.21-1.64-.72-2.52l6.52-11.73,4.99,2.77c-1.12,2.91.13,6.29,2.85,7.8l49.11,27.26c2.74,1.52,6.21.53,7.73-2.21l5.88-10.58,4.94,2.74-17.28,31.44c-.38.69-1.12,1.09-1.91,1.01-2.05-.21-4,.83-4.98,2.64l-5.97,11.14c-.28.51-.76.87-1.33.98l-6.33,1.26,12.11-22.33,5.25-1.5c2.69-.77,4.26-3.59,3.49-6.28l-1.67-5.86c-.76-2.66-3.62-4.25-6.28-3.49l-10.48,2.97s-.05-.03-.07-.05l-37.32-20.73h0Zm33.77-6.35l-14.01-7.77c-1.57-.87-2.71-2.3-3.2-4.03-.39-1.39-.33-2.84.17-4.16l25.58,14.2c-1.99,2.57-5.62,3.38-8.54,1.76ZM50.22,6.83l3.47-.21-1.98,3.56-7.54,13.56-1.65-3.05,1.78-3.2s0,0,0,0l3.2-5.75,2.73-4.91Zm-21.68-2.98l16.27,6.24-2.39,4.3L28.55,3.85Zm64.41,66.98c-.76.22-1.56-.04-2.05-.65-1.26-1.58-3.41-2.27-5.36-1.72l-10.23,2.83c-.56.16-1.15.06-1.63-.26l-5.32-3.64,34.27-9.71c1.01-.29,2.11.32,2.4,1.33l1.67,5.86c.29,1.03-.31,2.11-1.34,2.4l-12.42,3.55Z"/><g id="c"><path id="d" class="ai" d="m8.82,94.37l-6.82-10.57c-1.65-2.56-.73-5.99,1.98-7.38l25.35-12.82,9.2,14.13-22.17,17.88c-2.38,1.9-5.89,1.32-7.54-1.24"/></g><g id="e"><path id="f" class="aj" d="m38.53,77.73l-22.17,17.88c-2.39,1.9-5.89,1.32-7.54-1.24l-2.09-3.24c1.65,2.56,5.15,3.14,7.54,1.24l21.93-17.75,2.33,3.11Z"/></g><g id="g"><path id="h" class="aa" d="m92.23,52.14l-17.39-26.95c-1.77-2.75-5.59-3.24-8-1.03l-16.17,14.8c-6.32,5.78-11.61,13.08-15.24,20.83l8.83,14.04c8.56-.12,17.62-1.95,25.48-5.32l20.14-8.64c3-1.29,4.13-4.97,2.35-7.71"/></g><g id="i"><path id="j" class="ak" d="m89.88,59.85l-20.14,8.64c-7.87,3.37-16.92,5.2-25.48,5.32l-2.54-4.05c8.54-.13,17.57-1.96,25.41-5.32l20.14-8.64c3-1.29,4.13-4.97,2.35-7.71l2.61,4.04c1.77,2.75.65,6.43-2.35,7.71"/></g><g id="k"><path id="l" class="ak" d="m35.54,59.47l9.27,14.36c.85,1.32.47,3.08-.85,3.94l-2.39,1.54c-1.32.85-3.08.47-3.94-.85l-9.27-14.36c-.85-1.32-.47-3.08.85-3.94l2.39-1.54c1.32-.85,3.08-.47,3.94.85"/></g><g id="m"><path id="n" class="al" d="m43.96,77.77l-2.39,1.55c-1.32.85-3.09.47-3.94-.85l-1.83-2.83c.85,1.32,2.62,1.7,3.94.85l2.39-1.55c1.32-.85,1.7-2.62.85-3.94l1.83,2.83c.85,1.32.47,3.08-.85,3.94"/></g><g id="o"><path id="p" class="ab" d="m12.52,79.29c2.03-1.31,4.74-.73,6.06,1.3,1.31,2.03.73,4.74-1.3,6.06-2.03,1.31-4.74.73-6.06-1.3-1.31-2.03-.73-4.74,1.3-6.06"/></g><g id="q"><path id="r" class="ae" d="m17.27,86.65c-2.03,1.31-4.74.73-6.06-1.31-.34-.53-.56-1.11-.65-1.69,1.43,1.09,3.44,1.23,5.04.2,1.5-.97,2.21-2.7,1.95-4.36.39.3.73.67,1.01,1.1,1.31,2.03.73,4.74-1.31,6.06"/></g><g id="s"><path id="t" class="an" d="m37.69,78.51l-10.85,8.75-10.38,8.37c-2.38,1.9-5.89,1.32-7.54-1.24l-6.82-10.57c-1.65-2.56-.73-5.99,1.98-7.38l24.34-12.29"/></g><g id="u"><path id="v" class="an" d="m44.96,73.82h0c8.56-.12,17.01-1.93,24.88-5.3l20.14-8.64c3-1.29,4.13-4.97,2.35-7.71l-17.39-26.95c-1.77-2.75-5.59-3.24-8-1.03l-6.11,5.59-10.06,9.21c-6.32,5.78-11.44,12.74-15.08,20.49"/></g><g id="w"><path id="x" class="an" d="m42.71,70.45l2.2,3.41c.85,1.32.47,3.08-.85,3.94l-2.39,1.54c-1.32.85-3.08.47-3.94-.85l-9.27-14.36c-.85-1.32-.47-3.08.85-3.94l2.39-1.54c1.32-.85,3.08-.47,3.94.85l3.83,5.94"/></g><g id="y"><path id="z" class="an" d="m12.62,79.31c2.03-1.31,4.74-.73,6.06,1.3,1.31,2.03.73,4.74-1.3,6.06-2.03,1.31-4.74.73-6.06-1.3-1.31-2.03-.73-4.74,1.3-6.06Z"/></g></svg>