<svg id="Layer_1" enable-background="new 0 0 128 128" height="512" viewBox="0 0 128 128" width="512" xmlns="http://www.w3.org/2000/svg"><g><path d="m58.3 23.2h37.2c9.8 0 17.7 7.9 17.7 17.7v1.7c-4 1-6.8 4.5-7.1 8.6v26.3h-83.8v-26.3c-.3-4.3-3.4-7.9-7.6-8.7v-1.5c0-9.8 7.9-17.7 17.7-17.7h5" fill="#f95353"/><path d="m64.2 76v1.4h-41.9v-1.4c0-.2 0-.5 0-.7.4-6 5.4-10.7 11.4-10.6h19c6.3-.1 11.4 5 11.5 11.3z" fill="#f96e6e"/><path d="m106.1 76v1.4h-41.9v-1.4c0-6.3 5.1-11.4 11.4-11.4h19c6.3 0 11.5 5.1 11.5 11.4z" fill="#f96e6e"/><path d="m22.3 79.2c-1 0-1.7-.8-1.7-1.7v-1.5c0-.3 0-.5 0-.8 0-.9.8-1.7 1.8-1.7.9 0 1.7.8 1.7 1.7v2.2c-.1 1-.9 1.8-1.8 1.8z" fill="#15204f"/><path d="m118 75.2v2.6c0 3.6-1.7 7.1-4.6 9.2-.2.2-.5.4-.7.5-1.9 1.2-4 1.8-6.3 1.8h-84.4c-2.2 0-4.4-.6-6.2-1.9-.4-.2-.7-.5-1.1-.7-2.7-2.2-4.3-5.5-4.3-9v-16.7c-5.1-1.3-8.1-6.5-6.8-11.6 1.1-4.2 4.9-7.1 9.2-7.1.6 0 1.3.1 1.9.2 4.2.9 7.3 4.4 7.6 8.7v24.1.7 1.4h83.8v-26.2c.3-4.1 3.1-7.5 7.1-8.6.8-.2 1.6-.3 2.4-.3 5.2 0 9.5 4.2 9.5 9.5 0 4.3-2.9 8.1-7.1 9.2v6.1" fill="#f95353"/><path d="m22 89.4h84.1v6.6h-84.1z" fill="#f96e6e"/><path d="m113.3 107c-2.2.5-4.4-.8-4.9-3l-2.3-9.3v-5.4h.3c2.2 0 4.4-.6 6.3-1.8l3.6 14.5c.5 2.2-.9 4.4-3 5z" fill="#ffd671"/><path d="m22 89.4v6.6l-2 8c-.5 2.2-2.7 3.5-4.9 3s-3.5-2.7-3-4.9l3.6-14.6c1.9 1.2 4 1.9 6.3 1.9z" fill="#ffd671"/><path d="m44.6 23.2c0-.9.8-1.7 1.7-1.7h1.7c.9 0 1.7.8 1.7 1.7s-.8 1.7-1.7 1.7h-1.7c-.9 0-1.7-.8-1.7-1.7zm82.2 28.6c0 4.6-2.8 8.8-7.1 10.4v4.9c0 .9-.8 1.7-1.8 1.7-.9 0-1.7-.8-1.7-1.7v-6.1c0-.8.5-1.5 1.3-1.7 4.2-1.1 6.7-5.3 5.6-9.5-.9-3.4-4-5.8-7.5-5.8-4.5 0-7.8 3.7-7.8 7.5v26c0 .9-.8 1.7-1.7 1.7h-83.8c-.9 0-1.7-.8-1.7-1.7 0-6.5 0-16.4 0-26 0-3.6-2.7-6.6-6.2-7.3-.5-.1-1-.2-1.5-.1-4.4-.1-7.9 3.4-7.9 7.7 0 3.5 2.4 6.6 5.8 7.5.8.2 1.3.9 1.3 1.7v16.8c0 3.5 1.9 6.6 4.5 8.3 1.6 1 3.4 1.6 5.3 1.6h84.4c5.3 0 9.9-4.3 9.9-9.9v-2.6c0-.9.7-1.7 1.7-1.8.9 0 1.7.7 1.8 1.7v.1 2.6c0 4.1-1.9 8-5.1 10.5l3.3 13.4c.8 3.1-1.1 6.2-4.2 7-3 .8-6.2-1.1-7-4.2l-1.7-6.7h-81.7l-1.7 6.7c-.8 3.1-3.9 5-7 4.2s-5-3.9-4.2-7l3.3-13.4c-3.1-2.4-5.1-6.2-5.1-10.5v-15.6c-5.8-2.3-8.6-8.8-6.3-14.5 1.7-4.3 5.8-7.1 10.4-7.1h.2c.2-10.6 8.8-19.1 19.4-19.1h5c.9 0 1.7.8 1.7 1.7s-.8 1.7-1.7 1.7h-5c-8.8 0-16 7.2-16 16v.2c1.4.5 2.9 1.3 4.1 2.5 2.2 2.1 3.5 5.4 3.5 7.5v16.1c2.5-2.7 6-4.3 9.7-4.3h19c4.7 0 9.1 2.5 11.5 6.7 2.3-4.1 6.7-6.7 11.4-6.7h19c3.7 0 7.2 1.6 9.7 4.3v-16c0-2.2.9-4.3 2.2-6.1 1.4-1.8 3-2.9 4.9-3.7v-.4c0-8.8-7.2-16-16-16h-37c-.9 0-1.7-.8-1.7-1.7s.8-1.7 1.7-1.7h37.2c10.6 0 19.2 8.5 19.4 19.1h.7c6.1-.1 11.2 4.7 11.2 11.1zm-19 42.7 2.2 9.1c.3 1.2 1.6 2 2.8 1.7 1.2-.3 2-1.6 1.7-2.8l-3-12.4c-1.3.5-2.7.8-3.7 1zm-84.1-.2h80.7v-3.2h-80.7zm-9.9 8.2c-.3 1.2.5 2.5 1.7 2.8 1.2.3 2.5-.5 2.8-1.7l1.9-7.8v-4.8c-1-.2-2.1-.4-3.4-.9zm48.7-26.8c-.2-5.2-4.5-9.4-9.7-9.4h-19c-5.1 0-9.3 3.9-9.7 9v.4zm41.9 0c-.2-5.2-4.5-9.4-9.7-9.4h-19c-5.2 0-9.5 4.1-9.7 9.4zm-72.7-26c0 1.4 1.1 2.6 2.6 2.6 1.4 0 2.6-1.1 2.6-2.6 0-1.4-1.1-2.6-2.6-2.6s-2.6 1.2-2.6 2.6zm22.1 2.5c1.4 0 2.6-1.1 2.6-2.6 0-1.4-1.1-2.6-2.6-2.6-1.4 0-2.6 1.1-2.6 2.6s1.2 2.6 2.6 2.6zm22.1-2.5c0-1.4-1.1-2.6-2.6-2.6-1.4 0-2.6 1.1-2.6 2.6 0 1.4 1.1 2.6 2.6 2.6s2.6-1.2 2.6-2.6zm19.5 0c0-1.4-1.1-2.6-2.6-2.6-1.4 0-2.6 1.1-2.6 2.6 0 1.4 1.1 2.6 2.6 2.6 1.5-.1 2.6-1.2 2.6-2.6zm-50.9-8.8c1.4 0 2.6-1.1 2.6-2.6 0-1.4-1.1-2.6-2.6-2.6-1.4 0-2.6 1.1-2.6 2.6.1 1.4 1.2 2.6 2.6 2.6zm19.5 0c1.4 0 2.6-1.1 2.6-2.6s-1.1-2.6-2.6-2.6c-1.4 0-2.6 1.1-2.6 2.6.1 1.4 1.2 2.6 2.6 2.6zm22.1-2.6c0-1.4-1.1-2.6-2.6-2.6-1.4 0-2.6 1.1-2.6 2.6 0 1.4 1.1 2.6 2.6 2.6 1.5 0 2.6-1.2 2.6-2.6z" fill="#15204f"/></g></svg>