<svg clip-rule="evenodd" fill-rule="evenodd" height="512" stroke-linejoin="round" stroke-miterlimit="2" viewBox="0 0 64 64" width="512" xmlns="http://www.w3.org/2000/svg"><path d="m32 2s1.145 1.415 2.374 2.935c1.741 2.152 4.728 2.833 7.23 1.65 1.767-.836 3.413-1.614 3.413-1.614s.417 1.771.865 3.674c.635 2.694 3.03 4.605 5.798 4.624 1.955.014 3.775.026 3.775.026s-.393 1.777-.814 3.686c-.597 2.703.732 5.464 3.217 6.682 1.756.86 3.39 1.661 3.39 1.661s-1.125 1.431-2.333 2.968c-1.711 2.176-1.711 5.24 0 7.416 1.208 1.537 2.333 2.968 2.333 2.968s-1.634.801-3.39 1.661c-2.485 1.218-3.814 3.979-3.217 6.682.421 1.909.814 3.686.814 3.686s-1.82.012-3.775.026c-2.768.019-5.163 1.93-5.798 4.624-.448 1.903-.865 3.674-.865 3.674s-1.646-.778-3.413-1.614c-2.502-1.183-5.489-.502-7.23 1.65-1.229 1.52-2.374 2.935-2.374 2.935s-1.145-1.415-2.374-2.935c-1.741-2.152-4.728-2.833-7.23-1.65-1.767.836-3.413 1.614-3.413 1.614s-.417-1.771-.865-3.674c-.635-2.694-3.03-4.605-5.798-4.624-1.955-.014-3.775-.026-3.775-.026s.393-1.777.814-3.686c.597-2.703-.732-5.464-3.217-6.682-1.756-.86-3.39-1.661-3.39-1.661s1.125-1.431 2.333-2.968c1.711-2.176 1.711-5.24 0-7.416-1.208-1.537-2.333-2.968-2.333-2.968s1.634-.801 3.39-1.661c2.485-1.218 3.814-3.979 3.217-6.682-.421-1.909-.814-3.686-.814-3.686s1.82-.012 3.775-.026c2.768-.019 5.163-1.93 5.798-4.624.448-1.903.865-3.674.865-3.674s1.646.778 3.413 1.614c2.502 1.183 5.489.502 7.23-1.65 1.229-1.52 2.374-2.935 2.374-2.935z" fill="#ffc400"/><path d="m34.261 4.795c-8.804 2.499-15.261 10.604-15.261 20.205 0 11.59 9.41 21 21 21 7.959 0 14.89-4.437 18.452-10.972.137.235.291.462.463.68 1.208 1.537 2.333 2.968 2.333 2.968s-1.634.801-3.39 1.661c-2.485 1.218-3.814 3.979-3.217 6.682.421 1.909.814 3.686.814 3.686s-1.82.012-3.775.026c-2.768.019-5.163 1.93-5.798 4.624-.448 1.903-.865 3.674-.865 3.674s-1.646-.778-3.413-1.614c-2.502-1.183-5.489-.502-7.23 1.65-1.229 1.52-2.374 2.935-2.374 2.935s-1.145-1.415-2.374-2.935c-1.741-2.152-4.728-2.833-7.23-1.65-1.767.836-3.413 1.614-3.413 1.614s-.417-1.771-.865-3.674c-.635-2.694-3.03-4.605-5.798-4.624-1.955-.014-3.775-.026-3.775-.026s.393-1.777.814-3.686c.597-2.703-.732-5.464-3.217-6.682-1.756-.86-3.39-1.661-3.39-1.661s1.125-1.431 2.333-2.968c1.711-2.176 1.711-5.24 0-7.416-1.208-1.537-2.333-2.968-2.333-2.968s1.634-.801 3.39-1.661c2.485-1.218 3.814-3.979 3.217-6.682-.421-1.909-.814-3.686-.814-3.686s1.82-.012 3.775-.026c2.768-.019 5.163-1.93 5.798-4.624.448-1.903.865-3.674.865-3.674s1.646.778 3.413 1.614c2.502 1.183 5.489.502 7.23-1.65 1.229-1.52 2.374-2.935 2.374-2.935zm26.987 20.529-.258.328c.005-.15.008-.3.009-.45z" fill="#ffab00"/><circle cx="32" cy="32" fill="#ffe57f" r="21"/><path d="m22.627 13.206c-2.289 3.363-3.627 7.423-3.627 11.794 0 11.59 9.41 21 21 21 3.368 0 6.552-.795 9.373-2.206-3.78 5.555-10.153 9.206-17.373 9.206-11.59 0-21-9.41-21-21 0-8.222 4.735-15.347 11.627-18.794z" fill="#ffd740"/><path d="m44.486 4.968s-3.446 1.527-3.755 1.769c-.322.252-.339.595-.339.728 0 .532.725 1.175 1.386.891.057-.025 2.448-1.127 2.448-1.127s.577 2.391.577 2.391c.734 3.042 3.506 5.199 6.709 5.221 0 0 2.518.017 2.518.017s-.543 2.399-.543 2.399c-.691 3.051.847 6.168 3.723 7.544 0 0 2.261 1.081 2.261 1.081s-1.556 1.931-1.556 1.931c-1.98 2.457-1.98 5.917 0 8.374 0 0 1.556 1.931 1.556 1.931s-2.261 1.081-2.261 1.081c-2.876 1.376-4.414 4.493-3.723 7.544 0 0 .543 2.399.543 2.399s-2.518.017-2.518.017c-3.203.022-5.975 2.179-6.709 5.221 0 0-.577 2.391-.577 2.391s-2.276-1.051-2.276-1.051c-2.896-1.336-6.352-.566-8.367 1.864 0 0-1.583 1.91-1.583 1.91s-1.583-1.91-1.583-1.91c-2.015-2.43-5.471-3.2-8.367-1.864 0 0-2.276 1.051-2.276 1.051s-.577-2.391-.577-2.391c-.115-.475-.279-.928-.486-1.354-.235-.483-.827-.688-1.322-.459-.494.229-.705.806-.47 1.289.148.305.265.628.347.967 0 .001.859 3.556.859 3.556.068.284.265.523.535.65s.584.128.854.003l3.384-1.562c2.069-.954 4.537-.405 5.976 1.331 0 0 2.355 2.84 2.355 2.84.188.227.472.359.771.359s.583-.132.771-.359l2.355-2.84c1.439-1.736 3.907-2.285 5.975-1.331.001 0 3.385 1.562 3.385 1.562.27.125.584.124.854-.003s.467-.366.535-.65l.859-3.555c.524-2.173 2.504-3.714 4.792-3.729 0 0 3.744-.026 3.744-.026.299-.002.582-.136.768-.364.187-.229.258-.527.193-.812l-.807-3.567c-.494-2.18.605-4.406 2.659-5.389 0 0 3.362-1.608 3.362-1.608.269-.128.464-.369.53-.653.067-.285-.002-.584-.187-.814l-2.314-2.872c-1.414-1.755-1.414-4.225 0-5.98 0 0 2.314-2.872 2.314-2.872.185-.23.254-.529.187-.814-.066-.284-.261-.525-.53-.653l-3.362-1.608c-2.054-.983-3.153-3.209-2.659-5.389 0 0 .807-3.567.807-3.567.065-.285-.006-.583-.193-.812-.186-.228-.469-.362-.768-.364l-3.744-.026c-2.288-.015-4.268-1.556-4.792-3.728 0-.001-.859-3.556-.859-3.556-.068-.284-.265-.523-.535-.65s-.584-.128-.854-.003zm-.413 42.386c-3.344 2.508-7.531 4.001-12.073 4.001-10.948 0-19.836-8.673-19.836-19.355 0-4.493 1.572-8.63 4.208-11.915.338-.421.262-1.03-.169-1.359s-1.055-.255-1.393.166c-2.9 3.614-4.63 8.165-4.63 13.108 0 11.75 9.777 21.29 21.82 21.29 4.996 0 9.603-1.642 13.282-4.402.434-.325.515-.933.182-1.357-.334-.423-.957-.503-1.391-.177zm-30.543 1.889c-.341-.053-3.56-.101-3.56-.101s.543-2.399.543-2.399c.691-3.051-.847-6.168-3.723-7.544 0 0-2.261-1.081-2.261-1.081s1.556-1.931 1.556-1.931c1.98-2.457 1.98-5.917 0-8.374 0 0-1.556-1.931-1.556-1.931s2.261-1.081 2.261-1.081c2.876-1.376 4.414-4.493 3.723-7.544 0 0-.543-2.399-.543-2.399s2.518-.017 2.518-.017c3.203-.022 5.975-2.179 6.709-5.221 0 0 .577-2.391.577-2.391s2.276 1.051 2.276 1.051c2.896 1.336 6.352.566 8.367-1.864 0 0 1.583-1.91 1.583-1.91s1.583 1.91 1.583 1.91c.493.594 1.072 1.089 1.708 1.478.463.284 1.076.147 1.367-.305.291-.453.15-1.05-.313-1.334-.454-.278-.868-.632-1.219-1.056 0 0-2.355-2.84-2.355-2.84-.188-.227-.472-.359-.771-.359s-.583.132-.771.359l-2.355 2.84c-1.439 1.736-3.907 2.285-5.975 1.331-.001 0-3.385-1.562-3.385-1.562-.27-.125-.584-.124-.854.003s-.467.366-.535.65l-.859 3.555c-.524 2.173-2.504 3.714-4.792 3.729 0 0-3.744.026-3.744.026-.299.002-.582.136-.768.364-.187.229-.258.527-.193.812l.807 3.567c.494 2.18-.605 4.406-2.659 5.389 0 0-3.362 1.608-3.362 1.608-.269.128-.464.369-.53.653-.067.285.002.584.187.814l2.314 2.872c1.414 1.755 1.414 4.225 0 5.98 0 0-2.314 2.872-2.314 2.872-.185.23-.254.529-.187.814.066.284.261.525.53.653l3.362 1.608c2.054.983 3.153 3.209 2.659 5.389 0 0-.807 3.567-.807 3.567-.065.285.006.583.193.812.186.228.469.362.768.364 0 0 4.246.048 4.49.085.54.084 1.049-.276 1.135-.804.085-.527-.284-1.024-.825-1.107zm34.645-4.344c.263.195.99.26 1.231-.065 2.455-3.308 4.414-8.016 4.414-12.834 0-11.75-9.777-21.29-21.82-21.29-4.888 0-9.403 1.571-13.043 4.225-.438.32-.528.927-.201 1.355.328.427.95.515 1.388.196 3.309-2.412 7.413-3.841 11.856-3.841 10.948 0 19.836 8.673 19.836 19.355 0 4.379-1.494 8.421-4.011 11.666-.228.293.086 1.038.35 1.233z"/></svg>