<svg enable-background="new 0 0 256 256" height="512" viewBox="0 0 256 256" width="512" xmlns="http://www.w3.org/2000/svg"><g id="Layer_1"><g><g><g><path d="m213.862 129.026v107.211c0 2.71-2.19 4.9-4.89 4.9h-161.94c-2.7 0-4.89-2.19-4.89-4.9v-107.211l85.86-85.86z" fill="#72c2e9"/></g><g><path d="m213.862 129.026v11.31l-85.87-85.87-85.85 85.87v-11.31l85.86-85.86z" fill="#4ba5c8"/></g><g><path d="m247.782 139.662-8.102 8.108c-1.952 1.954-5.119 1.954-7.072.001l-104.617-104.615-85.857 85.878-18.738 18.738c-1.953 1.953-5.12 1.953-7.072-.001l-8.104-8.11c-1.951-1.952-1.951-5.115-.001-7.068 8.772-8.782 117.249-117.276 116.237-116.263 1.953-1.953 5.119-1.953 7.072 0l116.254 116.264c1.951 1.951 1.951 5.115 0 7.068z" fill="#7c7b7a"/></g><g><circle cx="128.001" cy="156.372" fill="#efc01f" r="63.256"/></g><g><circle cx="128.001" cy="156.372" fill="#efefef" r="49.256"/></g><g><g><path d="m124.472 163.266c-5.779-2.471-6.837-10.424-1.623-14.235 1.369-1.018 3.053-1.599 4.87-1.599 4.24 0 7.717 3.186 8.189 7.305.708 6.362-5.75 11.042-11.436 8.529z" fill="#fc5d3d"/></g></g><g><g><path d="m144.649 133.527v8.409c0 5.831-3.632 10.803-8.741 12.796-.47-4.112-3.952-7.297-8.191-7.297v-27.655h3.185c7.584 0 13.747 6.152 13.747 13.747z" fill="#72c2e9"/></g></g><g><g><path d="m120.547 159.741-23.914 13.81-1.599-2.75c-3.804-6.578-1.551-14.985 5.028-18.789l7.293-4.204c5.064-2.919 11.206-2.253 15.494 1.224-3.465 2.532-4.325 7.196-2.302 10.709z" fill="#72c2e9"/></g></g><g><path d="m158.841 173.636-1.587 2.75c-3.792 6.578-12.199 8.832-18.777 5.04l-7.293-4.216c-5.04-2.907-7.535-8.529-6.711-13.944 3.646 1.611 8.274.266 10.394-3.477z" fill="#72c2e9"/></g></g><g><g><path d="m202.75 232.521h-132.056c-1.381 0-2.5-1.119-2.5-2.5s1.119-2.5 2.5-2.5h129.556v-15.443c0-1.381 1.119-2.5 2.5-2.5s2.5 1.119 2.5 2.5v17.943c0 1.381-1.119 2.5-2.5 2.5zm-142.056 0h-3.429c-1.381 0-2.5-1.119-2.5-2.5s1.119-2.5 2.5-2.5h3.429c1.381 0 2.5 1.119 2.5 2.5s-1.119 2.5-2.5 2.5z" fill="#c2e5ff"/></g><g><path d="m202.75 165.819c-1.381 0-2.5-1.119-2.5-2.5v-22.192c0-1.381 1.119-2.5 2.5-2.5s2.5 1.119 2.5 2.5v22.192c0 1.381-1.119 2.5-2.5 2.5z" fill="#c2e5ff"/></g><g><path d="m236.85 139.978-5.964-5.965c-.976-.977-.976-2.56 0-3.535.976-.977 2.559-.977 3.536 0l5.964 5.965c.976.977.976 2.56 0 3.535-.977.977-2.559.977-3.536 0zm-13.035-13.035-97.581-97.581c-.977-.977-.977-2.559 0-3.535.976-.977 2.56-.977 3.535 0l97.581 97.581c.977.977.977 2.559 0 3.535-.976.976-2.56.976-3.535 0z" fill="#efefef"/></g><path d="m141.561 241.14c0-1.38-1.12-2.5-2.5-2.5h-92.03c-1.32-.01-2.39-1.08-2.39-2.399v-22.4c0-1.37-1.13-2.5-2.5-2.5-1.38 0-2.5 1.13-2.5 2.5v22.4c0 4.079 3.32 7.39 7.39 7.39h92.03c1.38-.001 2.5-1.121 2.5-2.491z"/><path d="m159.061 243.64 49.91-.01c4.08 0 7.39-3.311 7.39-7.39v-22.4c0-1.37-1.12-2.5-2.49-2.5-1.38 0-2.5 1.12-2.5 2.49l-.01.01v22.4c0 1.319-1.07 2.39-2.39 2.399h-49.91c-1.38 0-2.5 1.12-2.5 2.5s1.12 2.501 2.5 2.501z"/><path d="m146.561 241.14c0 1.37 1.12 2.49 2.5 2.49s2.5-1.12 2.5-2.49c0-1.38-1.12-2.5-2.5-2.5s-2.5 1.12-2.5 2.5z"/><path d="m33.051 104.21c-.97.979-.97 2.56 0 3.54.47.47 1.1.729 1.77.729s1.29-.26 1.77-.729c.97-.98.97-2.561 0-3.54-.951-.94-2.6-.94-3.54 0z"/><path d="m6.451 141.43 8.1 8.11c1.4 1.39 3.33 2.189 5.3 2.189v-.05l.02.05c1.97 0 3.9-.8 5.29-2.189l14.48-14.483v23.212c0 1.38 1.12 2.5 2.5 2.5s2.5-1.12 2.5-2.5v-28.213l83.35-83.367 83.38 83.38v28.2c0 1.38 1.12 2.5 2.5 2.5 1.37 0 2.49-1.12 2.49-2.5v-23.209l14.48 14.48c2.877 2.876 7.626 2.962 10.61 0l8.1-8.11c2.904-2.903 2.939-7.671 0-10.61l-116.26-116.26c-2.939-2.959-7.712-2.908-10.6 0l-82.571 82.58c-.47.47-.73 1.101-.73 1.771s.26 1.29.73 1.77c.95.94 2.59.94 3.54 0l82.56-82.58c1.02-1.019 2.584-.955 3.54 0l116.25 116.26c1.007 1.008.945 2.596 0 3.54l-8.1 8.101c-.973.972-2.559.98-3.54 0-1.129-1.129-97.766-97.767-104.61-104.61-.95-.95-2.59-.95-3.54 0-8.125 8.125-101.561 101.58-104.589 104.608-1.01 1.009-2.598.941-3.54 0l-8.1-8.11c-1.003-.981-.964-2.584 0-3.53l19.52-19.54c.98-.979.98-2.56.01-3.529-.95-.95-2.59-.95-3.54 0l-19.53 19.529c-2.916 2.916-2.928 7.683 0 10.61z"/><path d="m76.241 156.371c.042 28.763 23.307 51.76 51.76 51.76 28.463 0 51.72-23.003 51.76-51.76-.04-28.707-23.229-51.75-51.76-51.75-28.394 0-51.718 22.916-51.76 51.75zm98.52 0c-.02 25.86-20.914 46.74-46.76 46.76-25.893-.02-46.76-20.967-46.76-46.76 0-25.869 20.967-46.761 46.76-46.761 25.787 0 46.739 20.861 46.76 46.761z"/><path d="m4.441 179.65c8.072 8.053 21.24 8.221 29.48 0 6.259-6.258 16.277-6.121 22.4 0 .94.94 2.59.95 3.53 0 .98-.97.98-2.55.01-3.529 0 0 0 0-.01-.011-8.033-8.032-21.233-8.236-29.47 0-6.146 6.146-16.163 6.238-22.4 0-.95-.939-2.59-.939-3.54 0-1.016 1.038-.932 2.609 0 3.54z"/><path d="m33.918 195.451c6.189-6.19 16.211-6.192 22.402 0 .977.977 2.56.977 3.536 0 .977-.976.977-2.559 0-3.535-8.145-8.145-21.328-8.146-29.474 0-6.176 6.176-16.225 6.177-22.403 0-.977-.977-2.559-.977-3.536 0-.976.977-.976 2.56 0 3.535 8.128 8.125 21.35 8.124 29.475 0z"/><path d="m248.031 176.11h-.01c-2.99 2.99-6.97 4.641-11.2 4.641-11.956 0-11.708-10.74-25.95-10.74-5.56 0-10.79 2.17-14.72 6.1-2.359 2.361 1.232 5.84 3.53 3.54 2.99-2.989 6.97-4.64 11.2-4.64 11.947 0 11.731 10.74 25.92 10.74h.04c5.56 0 10.78-2.17 14.72-6.101.97-.979.97-2.56 0-3.54-.95-.94-2.59-.94-3.53 0z"/><path d="m248.022 191.915c-6.177 6.175-16.227 6.177-22.402 0-3.937-3.937-9.17-6.104-14.737-6.104-5.566 0-10.8 2.168-14.737 6.104-2.335 2.336 1.197 5.875 3.536 3.535 2.992-2.992 6.97-4.64 11.201-4.64s8.209 1.647 11.202 4.64c8.126 8.125 21.347 8.125 29.473 0 2.336-2.334-1.198-5.874-3.536-3.535z"/><path d="m193.761 156.371c0-16.94-6.45-33.03-18.15-45.311-.92-.97-2.57-1.01-3.54-.09-1 .95-1.04 2.53-.09 3.53.01.01.01.01.01.01 10.81 11.36 16.76 26.22 16.77 41.86-.02 33.607-27.305 60.76-60.76 60.76-33.517 0-60.76-27.236-60.76-60.76 0-33.519 27.236-60.761 60.76-60.761 10.04 0 19.99 2.521 28.79 7.271 1.18.64 2.75.16 3.39-1.01.65-1.221.2-2.74-1.01-3.391-9.52-5.149-20.3-7.87-31.17-7.87-36.25.011-65.75 29.511-65.75 65.761s29.5 65.75 65.75 65.76c36.25-.009 65.75-29.509 65.76-65.759z"/><path d="m166.361 108.61c.79 0 1.51-.359 1.99-.979.4-.54.58-1.19.49-1.85-.09-.671-.43-1.25-.96-1.66-1.07-.811-2.69-.601-3.5.47-.84 1.09-.63 2.66.46 3.5.44.339.97.519 1.52.519z"/><path d="m125.221 119.781v25.441c-.786.187-1.544.465-2.265.825-5.12-3.28-11.578-3.439-16.855-.406l-7.29 4.21c-5.02 2.891-8.13 8.29-8.13 14.08 0 4.918 1.996 7.785 3.79 10.88.721 1.217 2.259 1.576 3.41.91l21.989-12.705c.588.63 1.251 1.189 1.974 1.662-.242 6.325 3.118 11.826 8.087 14.693 7.37 4.266 10.043 6.39 15.4 6.39h.01c5.79 0 11.19-3.11 14.08-8.13l1.58-2.74c.719-1.227.244-2.763-.91-3.42l-22.078-12.756c.228-.776.358-1.577.406-2.392 2.314-1.207 4.312-2.95 5.832-5.122 1.89-2.73 2.9-5.931 2.9-9.271v-8.399c0-8.961-7.29-16.25-16.25-16.25h-3.18c-1.345 0-2.5 1.08-2.5 2.5zm-7.831 38.889-19.85 11.47c-1.131-1.937-1.86-3.717-1.86-6.21.01-4.02 2.16-7.75 5.63-9.75l7.29-4.21c3.258-1.883 7.111-1.944 10.32-.46-1.918 2.733-2.399 6.143-1.53 9.16zm4.581-2.985c.003-3.299 2.702-5.755 5.75-5.755 3.172 0 5.74 2.573 5.74 5.75 0 3.109-2.492 5.75-5.77 5.75-3.201 0-5.717-2.639-5.72-5.745zm33.46 18.865c-2.466 4.281-6.126 6.21-10.1 6.22-3.805-.019-5.339-1.353-12.9-5.729-3.13-1.8-5.21-5.03-5.56-8.641 3.299.25 6.549-1.083 8.66-3.34zm-25.21-52.269c7.571 0 11.921 5.553 11.93 11.25v8.399c0 3.63-1.76 7.04-4.72 9.15-1.313-2.78-3.893-5.013-7.098-5.817-.038-.01-.074-.024-.112-.033z"/></g></g></g></svg>