<?xml version="1.0" encoding="UTF-8"?><svg id="Layer_2" xmlns="http://www.w3.org/2000/svg" viewBox="0 0 129.9 50.17"><defs><style>.cls-1{fill:#fff;}</style></defs><g id="final"><g><path class="cls-1" d="M39.05,35.5c-.37,.07-.91,.16-1.62,.27-.72,.12-1.44,.17-2.17,.17s-1.39-.05-1.98-.15c-.58-.1-1.08-.3-1.48-.6-.4-.3-.71-.71-.92-1.23-.22-.52-.33-1.19-.33-2.02V2.95c.37-.07,.91-.16,1.62-.27,.72-.12,1.44-.17,2.17-.17s1.39,.05,1.98,.15c.58,.1,1.08,.3,1.48,.6,.4,.3,.71,.71,.92,1.22,.22,.52,.33,1.19,.33,2.03v29Z"/><path class="cls-1" d="M54.4,10.5c1.8,0,3.44,.18,4.92,.55,1.48,.37,2.75,.92,3.8,1.67,1.05,.75,1.86,1.7,2.42,2.85,.57,1.15,.85,2.51,.85,4.08v11.2c0,.87-.24,1.58-.73,2.12-.48,.55-1.06,1.03-1.73,1.43-2.17,1.3-5.22,1.95-9.15,1.95-1.77,0-3.36-.17-4.77-.5-1.42-.33-2.63-.83-3.65-1.5-1.02-.67-1.8-1.52-2.35-2.55-.55-1.03-.83-2.23-.83-3.6,0-2.3,.68-4.07,2.05-5.3,1.37-1.23,3.48-2,6.35-2.3l6.55-.7v-.35c0-.97-.43-1.66-1.27-2.08-.85-.42-2.08-.62-3.68-.62-1.27,0-2.5,.13-3.7,.4-1.2,.27-2.28,.6-3.25,1-.43-.3-.8-.76-1.1-1.38-.3-.62-.45-1.26-.45-1.93,0-.87,.21-1.56,.62-2.07,.42-.52,1.06-.96,1.93-1.33,.97-.37,2.11-.63,3.42-.8,1.32-.17,2.56-.25,3.73-.25Zm.4,19.65c.57,0,1.19-.06,1.88-.18,.68-.12,1.19-.27,1.52-.47v-4l-3.6,.3c-.93,.07-1.7,.27-2.3,.6-.6,.33-.9,.83-.9,1.5s.26,1.21,.77,1.62c.52,.42,1.39,.62,2.62,.62Z"/><path class="cls-1" d="M92.1,28.3c0,2.53-.95,4.52-2.85,5.95-1.9,1.43-4.7,2.15-8.4,2.15-1.4,0-2.7-.1-3.9-.3-1.2-.2-2.23-.51-3.08-.92s-1.52-.94-2-1.58c-.48-.63-.73-1.38-.73-2.25,0-.8,.17-1.47,.5-2.02,.33-.55,.73-1.01,1.2-1.38,.97,.53,2.07,1.01,3.32,1.43,1.25,.42,2.69,.62,4.33,.62,1.03,0,1.83-.15,2.38-.45s.83-.7,.83-1.2c0-.47-.2-.83-.6-1.1-.4-.27-1.07-.48-2-.65l-1.5-.3c-2.9-.57-5.06-1.46-6.48-2.67-1.42-1.22-2.12-2.96-2.12-5.23,0-1.23,.27-2.35,.8-3.35s1.28-1.83,2.25-2.5c.97-.67,2.12-1.18,3.48-1.55,1.35-.37,2.84-.55,4.48-.55,1.23,0,2.39,.09,3.48,.27,1.08,.18,2.02,.46,2.82,.83,.8,.37,1.43,.84,1.9,1.42,.47,.58,.7,1.28,.7,2.08s-.14,1.42-.42,1.98c-.28,.55-.64,1.01-1.08,1.38-.27-.17-.67-.34-1.2-.52-.53-.18-1.12-.35-1.75-.5-.63-.15-1.28-.28-1.93-.38-.65-.1-1.24-.15-1.77-.15-1.1,0-1.95,.12-2.55,.38-.6,.25-.9,.64-.9,1.18,0,.37,.17,.67,.5,.9,.33,.23,.97,.45,1.9,.65l1.55,.35c3.2,.73,5.48,1.74,6.83,3.02,1.35,1.28,2.02,2.94,2.02,4.98Z"/><path class="cls-1" d="M116.7,28.3c0,2.53-.95,4.52-2.85,5.95-1.9,1.43-4.7,2.15-8.4,2.15-1.4,0-2.7-.1-3.9-.3-1.2-.2-2.23-.51-3.08-.92s-1.52-.94-2-1.58c-.48-.63-.73-1.38-.73-2.25,0-.8,.17-1.47,.5-2.02,.33-.55,.73-1.01,1.2-1.38,.97,.53,2.07,1.01,3.32,1.43,1.25,.42,2.69,.62,4.33,.62,1.03,0,1.83-.15,2.38-.45s.83-.7,.83-1.2c0-.47-.2-.83-.6-1.1-.4-.27-1.07-.48-2-.65l-1.5-.3c-2.9-.57-5.06-1.46-6.48-2.67-1.42-1.22-2.12-2.96-2.12-5.23,0-1.23,.27-2.35,.8-3.35s1.28-1.83,2.25-2.5c.97-.67,2.12-1.18,3.48-1.55,1.35-.37,2.84-.55,4.48-.55,1.23,0,2.39,.09,3.48,.27,1.08,.18,2.02,.46,2.82,.83,.8,.37,1.43,.84,1.9,1.42,.47,.58,.7,1.28,.7,2.08s-.14,1.42-.42,1.98c-.28,.55-.64,1.01-1.08,1.38-.27-.17-.67-.34-1.2-.52-.53-.18-1.12-.35-1.75-.5-.63-.15-1.28-.28-1.93-.38-.65-.1-1.24-.15-1.77-.15-1.1,0-1.95,.12-2.55,.38-.6,.25-.9,.64-.9,1.18,0,.37,.17,.67,.5,.9,.33,.23,.97,.45,1.9,.65l1.55,.35c3.2,.73,5.48,1.74,6.83,3.02,1.35,1.28,2.02,2.94,2.02,4.98Z"/><path class="cls-1" d="M120.6,4.5c0-1.27,.43-2.33,1.27-3.2,.85-.87,1.98-1.3,3.38-1.3s2.53,.43,3.38,1.3c.85,.87,1.28,1.93,1.28,3.2s-.43,2.33-1.28,3.2c-.85,.87-1.97,1.3-3.38,1.3s-2.52-.43-3.38-1.3c-.85-.87-1.27-1.93-1.27-3.2Zm8.9,31c-.37,.07-.91,.16-1.62,.27-.72,.12-1.44,.17-2.17,.17s-1.39-.05-1.98-.15c-.58-.1-1.07-.3-1.48-.6-.4-.3-.71-.71-.92-1.23-.22-.52-.33-1.19-.33-2.02V11.6c.37-.07,.91-.16,1.62-.27,.72-.12,1.44-.17,2.18-.17s1.39,.05,1.98,.15c.58,.1,1.07,.3,1.47,.6,.4,.3,.71,.71,.93,1.23,.22,.52,.32,1.19,.32,2.02v20.35Z"/><path class="cls-1" d="M25.3,18.1c-.38-.97-.87-1.83-1.44-2.62l.18-.03c.41-.07,.72-.2,.95-.4,.22-.19,.38-.45,.47-.78,.09-.32,.12-.71,.1-1.15-.02-.45-.08-.95-.18-1.53-.1-.55-.23-1.12-.39-1.7-.16-.59-.28-1.02-.36-1.28l-10.89,1.92c-.19,0-.38-.02-.58-.02-1.97,0-3.75,.3-5.35,.9-1.6,.6-2.97,1.46-4.12,2.57-1.15,1.12-2.04,2.48-2.67,4.08C.37,19.65,.05,21.43,.05,23.4s.32,3.8,.95,5.4c.63,1.6,1.52,2.96,2.67,4.08,1.15,1.12,2.53,1.97,4.12,2.57,1.6,.6,3.38,.9,5.35,.9s3.75-.28,5.35-.85,2.98-1.4,4.12-2.5c1.15-1.1,2.04-2.46,2.67-4.08,.63-1.62,.95-3.46,.95-5.52,0-1.93-.32-3.7-.95-5.3Zm-8.88,9.95c-.75,1.1-1.82,1.65-3.22,1.65s-2.49-.54-3.28-1.62c-.78-1.08-1.17-2.64-1.17-4.67s.38-3.54,1.15-4.62c.77-1.08,1.85-1.62,3.25-1.62s2.48,.54,3.25,1.62c.77,1.08,1.15,2.62,1.15,4.62s-.38,3.55-1.12,4.65Z"/><path class="cls-1" d="M25.63,42.69c-.46-1.3-1.82-3.37-1.82-3.37h-.03c-1.04,.64-2.17,1.18-3.36,1.6-2.21,.78-4.66,1.18-7.27,1.18s-5.13-.43-7.37-1.27c-1.1-.41-2.13-.92-3.09-1.51h-.2s-1.36,2.07-1.82,3.37c-.46,1.3-.52,1.5-.59,1.89s-.16,.95,.01,1.59c.17,.64,.5,.99,.8,1.31s.74,.6,1.76,1.05,1.85,.87,4.15,1.25c2.27,.37,5.77,.39,5.83,.39h0s0,0,0,0h0c.06,0,3.56-.02,5.83-.39,2.3-.38,4.13-.8,5.15-1.25s1.46-.73,1.76-1.05,.63-.67,.8-1.31c.17-.64,.09-1.2,.01-1.59s-.13-.59-.59-1.89Z"/></g></g></svg>